<?xml version="1.0" encoding="UTF-8" standalone="no"?>
<!DOCTYPE svg PUBLIC "-//W3C//DTD SVG 1.1//EN"
 "http://www.w3.org/Graphics/SVG/1.1/DTD/svg11.dtd">
<!-- Generated by graphviz version 2.38.0 (20140413.2041)
 -->
<!-- Title: %3 Pages: 1 -->
<svg width="1523pt" height="1082pt"
 viewBox="0.00 0.00 1523.32 1082.04" xmlns="http://www.w3.org/2000/svg" xmlns:xlink="http://www.w3.org/1999/xlink">
<g id="graph0" class="graph" transform="scale(1 1) rotate(0) translate(881.717 540.284)">
<title>%3</title>
<polygon fill="white" stroke="none" points="-881.717,541.754 -881.717,-540.284 641.6,-540.284 641.6,541.754 -881.717,541.754"/>
<!-- Seed[#1275#] -->
<g id="node1" class="node"><title>Seed[#1275#]</title>
<polygon fill="none" stroke="black" points="432.325,317.343 432.325,296.343 601.325,296.343 601.325,317.343 432.325,317.343"/>
<text text-anchor="start" x="478.325" y="309.543" font-family="Times,serif" font-weight="bold" font-size="14.00">Seed[#1275#]</text>
<polygon fill="none" stroke="black" points="432.325,340.343 432.325,319.343 601.325,319.343 601.325,340.343 432.325,340.343"/>
<text text-anchor="start" x="435.325" y="332.543" font-family="Times,serif" font-weight="bold" font-size="14.00">Signature: </text>
<text text-anchor="start" x="500.325" y="332.543" font-family="Times,serif" font-size="14.00">controlLogic</text>
<polygon fill="none" stroke="black" points="432.325,363.343 432.325,342.343 601.325,342.343 601.325,363.343 432.325,363.343"/>
<text text-anchor="start" x="435.325" y="355.543" font-family="Times,serif" font-weight="bold" font-size="14.00">Ident: </text>
<text text-anchor="start" x="475.325" y="355.543" font-family="Times,serif" font-size="14.00">Seed[#1275#]</text>
<polygon fill="none" stroke="black" points="432.325,399.343 432.325,365.343 601.325,365.343 601.325,399.343 432.325,399.343"/>
<text text-anchor="start" x="435.325" y="378.543" font-family="Times,serif" font-weight="bold" font-size="14.00">Type: </text>
<text text-anchor="start" x="473.325" y="378.543" font-family="Times,serif" font-size="14.00" fill="#000080">Record</text>
<text text-anchor="start" x="513.325" y="378.543" font-family="Times,serif" font-size="14.00"> </text>
<text text-anchor="start" x="435.325" y="392.543" font-family="Times,serif" font-weight="bold" font-size="14.00" fill="darkgreen"> &#160;&#160;&#160;controlUid</text>
<text text-anchor="start" x="513.325" y="392.543" font-family="Times,serif" font-size="14.00"> </text>
<text text-anchor="start" x="517.325" y="392.543" font-family="Times,serif" font-weight="bold" font-size="14.00" fill="#008b8b">&lt;:=</text>
<text text-anchor="start" x="539.325" y="392.543" font-family="Times,serif" font-size="14.00"> </text>
<text text-anchor="start" x="543.325" y="392.543" font-family="Times,serif" font-size="14.00" fill="#000080">UID</text>
<text text-anchor="start" x="568.325" y="392.543" font-family="Times,serif" font-size="14.00"> </text>
<text text-anchor="start" x="572.325" y="392.543" font-family="Times,serif" font-size="14.00" fill="#ee7600">930</text>
<polygon fill="none" stroke="black" points="432.325,422.343 432.325,401.343 601.325,401.343 601.325,422.343 432.325,422.343"/>
<text text-anchor="start" x="435.325" y="414.543" font-family="Times,serif" font-weight="bold" font-size="14.00">Resource Constraints: </text>
<text text-anchor="start" x="568.325" y="414.543" font-family="Times,serif" font-size="14.00" fill="#cd0000">None</text>
<polygon fill="none" stroke="black" points="428.825,425.343 428.825,293.343 603.825,293.343 603.825,425.343 428.825,425.343"/>
</g>
<!-- apiLink[6][#36#] -->
<g id="node7" class="node"><title>apiLink[6][#36#]</title>
<ellipse fill="black" stroke="black" cx="173.107" cy="535.954" rx="1.8" ry="1.8"/>
</g>
<!-- Seed[#1275#]&#45;&#45;apiLink[6][#36#] -->
<g id="edge1" class="edge"><title>Seed[#1275#]&#45;&#45;apiLink[6][#36#]</title>
<path fill="none" stroke="black" d="M420.719,408.539C325.511,457.531 191.19,526.649 174.772,535.097"/>
<polygon fill="none" stroke="black" points="375.219,406.039 375.219,385.039 418.219,385.039 418.219,406.039 375.219,406.039"/>
<text text-anchor="start" x="378.219" y="398.239" font-family="Times,serif" font-weight="bold" font-size="14.00">sensor</text>
<polygon fill="none" stroke="black" points="371.719,408.539 371.719,381.539 420.719,381.539 420.719,408.539 371.719,408.539"/>
</g>
<!-- apiLink[8][#50#] -->
<g id="node8" class="node"><title>apiLink[8][#50#]</title>
<ellipse fill="black" stroke="black" cx="635.8" cy="11.7829" rx="1.8" ry="1.8"/>
</g>
<!-- Seed[#1275#]&#45;&#45;apiLink[8][#50#] -->
<g id="edge3" class="edge"><title>Seed[#1275#]&#45;&#45;apiLink[8][#50#]</title>
<path fill="none" stroke="black" d="M540.502,289.009C573.231,193.798 628.351,33.4519 635.113,13.7806"/>
<polygon fill="none" stroke="black" points="489.002,286.509 489.002,265.509 538.002,265.509 538.002,286.509 489.002,286.509"/>
<text text-anchor="start" x="492.002" y="278.709" font-family="Times,serif" font-weight="bold" font-size="14.00">storage</text>
<polygon fill="none" stroke="black" points="485.502,289.009 485.502,262.009 540.502,262.009 540.502,289.009 485.502,289.009"/>
</g>
<!-- usbLink[1][#172#] -->
<g id="node13" class="node"><title>usbLink[1][#172#]</title>
<ellipse fill="black" stroke="black" cx="345.971" cy="66.2677" rx="1.8" ry="1.8"/>
</g>
<!-- Seed[#1275#]&#45;&#45;usbLink[1][#172#] -->
<g id="edge18" class="edge"><title>Seed[#1275#]&#45;&#45;usbLink[1][#172#]</title>
<path fill="none" stroke="black" d="M475.521,289.144C428.667,208.537 356.96,85.1724 347.107,68.2228"/>
<polygon fill="none" stroke="black" points="418.021,286.644 418.021,265.644 473.021,265.644 473.021,286.644 418.021,286.644"/>
<text text-anchor="start" x="421.021" y="278.844" font-family="Times,serif" font-weight="bold" font-size="14.00">usbHost</text>
<polygon fill="none" stroke="black" points="414.521,289.144 414.521,262.144 475.521,262.144 475.521,289.144 414.521,289.144"/>
</g>
<!-- apm3v3[1][#930#] -->
<g id="node2" class="node"><title>apm3v3[1][#930#]</title>
<polygon fill="none" stroke="black" points="-45.4348,-497.899 -45.4348,-518.899 170.565,-518.899 170.565,-497.899 -45.4348,-497.899"/>
<text text-anchor="start" x="9.5652" y="-505.699" font-family="Times,serif" font-weight="bold" font-size="14.00">apm3v3[1][#930#]</text>
<polygon fill="none" stroke="black" points="-45.4348,-474.899 -45.4348,-495.899 170.565,-495.899 170.565,-474.899 -45.4348,-474.899"/>
<text text-anchor="start" x="-42.4348" y="-482.699" font-family="Times,serif" font-weight="bold" font-size="14.00">Signature: </text>
<text text-anchor="start" x="22.5652" y="-482.699" font-family="Times,serif" font-size="14.00">Arduino Pro Micro 3v3</text>
<polygon fill="none" stroke="black" points="-45.4348,-451.899 -45.4348,-472.899 170.565,-472.899 170.565,-451.899 -45.4348,-451.899"/>
<text text-anchor="start" x="-42.4348" y="-459.699" font-family="Times,serif" font-weight="bold" font-size="14.00">Ident: </text>
<text text-anchor="start" x="-2.4348" y="-459.699" font-family="Times,serif" font-size="14.00">apm3v3[1][#930#]</text>
<polygon fill="none" stroke="black" points="-45.4348,-387.899 -45.4348,-449.899 170.565,-449.899 170.565,-387.899 -45.4348,-387.899"/>
<text text-anchor="start" x="-42.4348" y="-436.699" font-family="Times,serif" font-weight="bold" font-size="14.00">Type: </text>
<text text-anchor="start" x="-4.4348" y="-436.699" font-family="Times,serif" font-size="14.00" fill="#000080">Record</text>
<text text-anchor="start" x="35.5652" y="-436.699" font-family="Times,serif" font-size="14.00"> </text>
<text text-anchor="start" x="-42.4348" y="-422.699" font-family="Times,serif" font-weight="bold" font-size="14.00" fill="darkgreen"> &#160;&#160;&#160;MHz</text>
<text text-anchor="start" x="3.5652" y="-422.699" font-family="Times,serif" font-size="14.00"> </text>
<text text-anchor="start" x="7.5652" y="-422.699" font-family="Times,serif" font-weight="bold" font-size="14.00" fill="#008b8b">&lt;:=</text>
<text text-anchor="start" x="29.5652" y="-422.699" font-family="Times,serif" font-size="14.00"> </text>
<text text-anchor="start" x="33.5652" y="-422.699" font-family="Times,serif" font-size="14.00" fill="#000080">Float</text>
<text text-anchor="start" x="61.5652" y="-422.699" font-family="Times,serif" font-size="14.00"> </text>
<text text-anchor="start" x="65.5652" y="-422.699" font-family="Times,serif" font-size="14.00" fill="maroon">8.0</text>
<text text-anchor="start" x="-42.4348" y="-408.699" font-family="Times,serif" font-weight="bold" font-size="14.00" fill="darkgreen"> &#160;&#160;&#160;intCurrentMax</text>
<text text-anchor="start" x="63.5652" y="-408.699" font-family="Times,serif" font-size="14.00"> </text>
<text text-anchor="start" x="67.5652" y="-408.699" font-family="Times,serif" font-weight="bold" font-size="14.00" fill="#008b8b">&lt;:=</text>
<text text-anchor="start" x="89.5652" y="-408.699" font-family="Times,serif" font-size="14.00"> </text>
<text text-anchor="start" x="93.5652" y="-408.699" font-family="Times,serif" font-size="14.00" fill="#000080">Float</text>
<text text-anchor="start" x="121.565" y="-408.699" font-family="Times,serif" font-size="14.00"> </text>
<text text-anchor="start" x="125.565" y="-408.699" font-family="Times,serif" font-size="14.00" fill="maroon">8.01e&#45;3</text>
<text text-anchor="start" x="-42.4348" y="-394.699" font-family="Times,serif" font-weight="bold" font-size="14.00" fill="darkgreen"> &#160;&#160;&#160;intCurrentMin</text>
<text text-anchor="start" x="60.5652" y="-394.699" font-family="Times,serif" font-size="14.00"> </text>
<text text-anchor="start" x="64.5652" y="-394.699" font-family="Times,serif" font-weight="bold" font-size="14.00" fill="#008b8b">&lt;:=</text>
<text text-anchor="start" x="86.5652" y="-394.699" font-family="Times,serif" font-size="14.00"> </text>
<text text-anchor="start" x="90.5652" y="-394.699" font-family="Times,serif" font-size="14.00" fill="#000080">Float</text>
<text text-anchor="start" x="118.565" y="-394.699" font-family="Times,serif" font-size="14.00"> </text>
<text text-anchor="start" x="122.565" y="-394.699" font-family="Times,serif" font-size="14.00" fill="maroon">1.0e&#45;6</text>
<polygon fill="none" stroke="black" points="-45.4348,12.1009 -45.4348,-385.899 170.565,-385.899 170.565,12.1009 -45.4348,12.1009"/>
<text text-anchor="start" x="-42.4348" y="-372.699" font-family="Times,serif" font-weight="bold" font-size="14.00">Resource Constraints: </text>
<text text-anchor="start" x="-42.4348" y="-358.699" font-family="Times,serif" font-weight="bold" font-size="14.00" fill="darkorchid"> &#160;&#160;&#160;analog0</text>
<text text-anchor="start" x="18.5652" y="-358.699" font-family="Times,serif" font-size="14.00"> </text>
<text text-anchor="start" x="22.5652" y="-358.699" font-family="Times,serif" font-size="14.00" fill="#cd0000">Unused</text>
<text text-anchor="start" x="-42.4348" y="-344.699" font-family="Times,serif" font-weight="bold" font-size="14.00" fill="darkorchid"> &#160;&#160;&#160;analog1</text>
<text text-anchor="start" x="18.5652" y="-344.699" font-family="Times,serif" font-size="14.00"> </text>
<text text-anchor="start" x="22.5652" y="-344.699" font-family="Times,serif" font-size="14.00" fill="#cd0000">Unused</text>
<text text-anchor="start" x="-42.4348" y="-330.699" font-family="Times,serif" font-weight="bold" font-size="14.00" fill="darkorchid"> &#160;&#160;&#160;analog2</text>
<text text-anchor="start" x="18.5652" y="-330.699" font-family="Times,serif" font-size="14.00"> </text>
<text text-anchor="start" x="22.5652" y="-330.699" font-family="Times,serif" font-size="14.00" fill="#cd0000">Unused</text>
<text text-anchor="start" x="-42.4348" y="-316.699" font-family="Times,serif" font-weight="bold" font-size="14.00" fill="darkorchid"> &#160;&#160;&#160;analog3</text>
<text text-anchor="start" x="18.5652" y="-316.699" font-family="Times,serif" font-size="14.00"> </text>
<text text-anchor="start" x="22.5652" y="-316.699" font-family="Times,serif" font-size="14.00" fill="#cd0000">Unused</text>
<text text-anchor="start" x="-42.4348" y="-302.699" font-family="Times,serif" font-weight="bold" font-size="14.00" fill="darkorchid"> &#160;&#160;&#160;gpio1dig</text>
<text text-anchor="start" x="22.5652" y="-302.699" font-family="Times,serif" font-size="14.00"> </text>
<text text-anchor="start" x="26.5652" y="-302.699" font-family="Times,serif" font-size="14.00" fill="#cd0000">Unused</text>
<text text-anchor="start" x="-42.4348" y="-288.699" font-family="Times,serif" font-weight="bold" font-size="14.00" fill="darkorchid"> &#160;&#160;&#160;gpio1pwm</text>
<text text-anchor="start" x="33.5652" y="-288.699" font-family="Times,serif" font-size="14.00"> </text>
<text text-anchor="start" x="37.5652" y="-288.699" font-family="Times,serif" font-size="14.00" fill="#cd0000">Unused</text>
<text text-anchor="start" x="-42.4348" y="-274.699" font-family="Times,serif" font-weight="bold" font-size="14.00" fill="darkorchid"> &#160;&#160;&#160;gpio2dig</text>
<text text-anchor="start" x="22.5652" y="-274.699" font-family="Times,serif" font-size="14.00"> </text>
<text text-anchor="start" x="26.5652" y="-274.699" font-family="Times,serif" font-size="14.00" fill="#cd0000">Unused</text>
<text text-anchor="start" x="-42.4348" y="-260.699" font-family="Times,serif" font-weight="bold" font-size="14.00" fill="darkorchid"> &#160;&#160;&#160;gpio2pwm</text>
<text text-anchor="start" x="33.5652" y="-260.699" font-family="Times,serif" font-size="14.00"> </text>
<text text-anchor="start" x="37.5652" y="-260.699" font-family="Times,serif" font-size="14.00" fill="#cd0000">Unused</text>
<text text-anchor="start" x="-42.4348" y="-246.699" font-family="Times,serif" font-weight="bold" font-size="14.00" fill="darkorchid"> &#160;&#160;&#160;gpio3dig</text>
<text text-anchor="start" x="22.5652" y="-246.699" font-family="Times,serif" font-size="14.00"> </text>
<text text-anchor="start" x="26.5652" y="-246.699" font-family="Times,serif" font-size="14.00" fill="#cd0000">Unused</text>
<text text-anchor="start" x="-42.4348" y="-232.699" font-family="Times,serif" font-weight="bold" font-size="14.00" fill="darkorchid"> &#160;&#160;&#160;gpio3pwm</text>
<text text-anchor="start" x="33.5652" y="-232.699" font-family="Times,serif" font-size="14.00"> </text>
<text text-anchor="start" x="37.5652" y="-232.699" font-family="Times,serif" font-size="14.00" fill="#cd0000">Unused</text>
<text text-anchor="start" x="-42.4348" y="-218.699" font-family="Times,serif" font-weight="bold" font-size="14.00" fill="darkorchid"> &#160;&#160;&#160;gpio4dig</text>
<text text-anchor="start" x="22.5652" y="-218.699" font-family="Times,serif" font-size="14.00"> </text>
<text text-anchor="start" x="26.5652" y="-218.699" font-family="Times,serif" font-size="14.00" fill="#cd0000">Unused</text>
<text text-anchor="start" x="-42.4348" y="-204.699" font-family="Times,serif" font-weight="bold" font-size="14.00" fill="darkorchid"> &#160;&#160;&#160;gpio4pwm</text>
<text text-anchor="start" x="33.5652" y="-204.699" font-family="Times,serif" font-size="14.00"> </text>
<text text-anchor="start" x="37.5652" y="-204.699" font-family="Times,serif" font-size="14.00" fill="#cd0000">Unused</text>
<text text-anchor="start" x="-42.4348" y="-190.699" font-family="Times,serif" font-weight="bold" font-size="14.00" fill="darkorchid"> &#160;&#160;&#160;gpio5dig</text>
<text text-anchor="start" x="22.5652" y="-190.699" font-family="Times,serif" font-size="14.00"> </text>
<text text-anchor="start" x="26.5652" y="-190.699" font-family="Times,serif" font-size="14.00" fill="#cd0000">Unused</text>
<text text-anchor="start" x="-42.4348" y="-176.699" font-family="Times,serif" font-weight="bold" font-size="14.00" fill="darkorchid"> &#160;&#160;&#160;gpio5pwm</text>
<text text-anchor="start" x="33.5652" y="-176.699" font-family="Times,serif" font-size="14.00"> </text>
<text text-anchor="start" x="37.5652" y="-176.699" font-family="Times,serif" font-size="14.00" fill="#cd0000">Unused</text>
<text text-anchor="start" x="-42.4348" y="-162.699" font-family="Times,serif" font-weight="bold" font-size="14.00" fill="darkorchid"> &#160;&#160;&#160;gpio6dig</text>
<text text-anchor="start" x="22.5652" y="-162.699" font-family="Times,serif" font-size="14.00"> </text>
<text text-anchor="start" x="26.5652" y="-162.699" font-family="Times,serif" font-size="14.00" fill="#cd0000">Unused</text>
<text text-anchor="start" x="-42.4348" y="-148.699" font-family="Times,serif" font-weight="bold" font-size="14.00" fill="darkorchid"> &#160;&#160;&#160;gpio6pwm</text>
<text text-anchor="start" x="33.5652" y="-148.699" font-family="Times,serif" font-size="14.00"> </text>
<text text-anchor="start" x="37.5652" y="-148.699" font-family="Times,serif" font-size="14.00" fill="#cd0000">Unused</text>
<text text-anchor="start" x="-42.4348" y="-134.699" font-family="Times,serif" font-weight="bold" font-size="14.00" fill="darkorchid"> &#160;&#160;&#160;gpio7dig</text>
<text text-anchor="start" x="22.5652" y="-134.699" font-family="Times,serif" font-size="14.00"> </text>
<text text-anchor="start" x="26.5652" y="-134.699" font-family="Times,serif" font-size="14.00" fill="#cd0000">Unused</text>
<text text-anchor="start" x="-42.4348" y="-120.699" font-family="Times,serif" font-weight="bold" font-size="14.00" fill="darkorchid"> &#160;&#160;&#160;gpio7pwm</text>
<text text-anchor="start" x="33.5652" y="-120.699" font-family="Times,serif" font-size="14.00"> </text>
<text text-anchor="start" x="37.5652" y="-120.699" font-family="Times,serif" font-size="14.00" fill="#cd0000">Unused</text>
<text text-anchor="start" x="-42.4348" y="-106.699" font-family="Times,serif" font-weight="bold" font-size="14.00" fill="darkorchid"> &#160;&#160;&#160;gpio8dig</text>
<text text-anchor="start" x="22.5652" y="-106.699" font-family="Times,serif" font-size="14.00"> </text>
<text text-anchor="start" x="26.5652" y="-106.699" font-family="Times,serif" font-size="14.00" fill="#cd0000">Unused</text>
<text text-anchor="start" x="-42.4348" y="-92.6991" font-family="Times,serif" font-weight="bold" font-size="14.00" fill="darkorchid"> &#160;&#160;&#160;gpio8pwm</text>
<text text-anchor="start" x="33.5652" y="-92.6991" font-family="Times,serif" font-size="14.00"> </text>
<text text-anchor="start" x="37.5652" y="-92.6991" font-family="Times,serif" font-size="14.00" fill="#cd0000">Unused</text>
<text text-anchor="start" x="-42.4348" y="-78.6991" font-family="Times,serif" font-weight="bold" font-size="14.00" fill="darkorchid"> &#160;&#160;&#160;i2c</text>
<text text-anchor="start" x="-10.4348" y="-78.6991" font-family="Times,serif" font-size="14.00"> </text>
<text text-anchor="start" x="-6.4348" y="-78.6991" font-family="Times,serif" font-size="14.00" fill="darkolivegreen">Used</text>
<text text-anchor="start" x="-42.4348" y="-64.6991" font-family="Times,serif" font-weight="bold" font-size="14.00" fill="#6959cd"> &#160;&#160;&#160;&#160;&#160;&#160;&#160;i2cSCL</text>
<text text-anchor="start" x="30.5652" y="-64.6991" font-family="Times,serif" font-size="14.00"> </text>
<text text-anchor="start" x="34.5652" y="-64.6991" font-family="Times,serif" font-weight="bold" font-size="14.00" fill="#008b8b">:|=</text>
<text text-anchor="start" x="50.5652" y="-64.6991" font-family="Times,serif" font-size="14.00"> </text>
<text text-anchor="start" x="54.5652" y="-64.6991" font-family="Times,serif" font-size="14.00" fill="#696969">D3</text>
<text text-anchor="start" x="-42.4348" y="-50.6991" font-family="Times,serif" font-weight="bold" font-size="14.00" fill="#6959cd"> &#160;&#160;&#160;&#160;&#160;&#160;&#160;i2cSDA</text>
<text text-anchor="start" x="31.5652" y="-50.6991" font-family="Times,serif" font-size="14.00"> </text>
<text text-anchor="start" x="35.5652" y="-50.6991" font-family="Times,serif" font-weight="bold" font-size="14.00" fill="#008b8b">:|=</text>
<text text-anchor="start" x="51.5652" y="-50.6991" font-family="Times,serif" font-size="14.00"> </text>
<text text-anchor="start" x="55.5652" y="-50.6991" font-family="Times,serif" font-size="14.00" fill="#696969">D2</text>
<text text-anchor="start" x="-42.4348" y="-36.6991" font-family="Times,serif" font-weight="bold" font-size="14.00" fill="darkorchid"> &#160;&#160;&#160;spi</text>
<text text-anchor="start" x="-10.4348" y="-36.6991" font-family="Times,serif" font-size="14.00"> </text>
<text text-anchor="start" x="-6.4348" y="-36.6991" font-family="Times,serif" font-size="14.00" fill="#cd0000">Unused</text>
<text text-anchor="start" x="-42.4348" y="-22.6991" font-family="Times,serif" font-weight="bold" font-size="14.00" fill="darkorchid"> &#160;&#160;&#160;uart</text>
<text text-anchor="start" x="-2.4348" y="-22.6991" font-family="Times,serif" font-size="14.00"> </text>
<text text-anchor="start" x="1.5652" y="-22.6991" font-family="Times,serif" font-size="14.00" fill="darkolivegreen">Used</text>
<text text-anchor="start" x="-42.4348" y="-8.69913" font-family="Times,serif" font-weight="bold" font-size="14.00" fill="#6959cd"> &#160;&#160;&#160;&#160;&#160;&#160;&#160;uartRX</text>
<text text-anchor="start" x="32.5652" y="-8.69913" font-family="Times,serif" font-size="14.00"> </text>
<text text-anchor="start" x="36.5652" y="-8.69913" font-family="Times,serif" font-weight="bold" font-size="14.00" fill="#008b8b">:|=</text>
<text text-anchor="start" x="52.5652" y="-8.69913" font-family="Times,serif" font-size="14.00"> </text>
<text text-anchor="start" x="56.5652" y="-8.69913" font-family="Times,serif" font-size="14.00" fill="#696969">D0</text>
<text text-anchor="start" x="-42.4348" y="5.30087" font-family="Times,serif" font-weight="bold" font-size="14.00" fill="#6959cd"> &#160;&#160;&#160;&#160;&#160;&#160;&#160;uartTX</text>
<text text-anchor="start" x="31.5652" y="5.30087" font-family="Times,serif" font-size="14.00"> </text>
<text text-anchor="start" x="35.5652" y="5.30087" font-family="Times,serif" font-weight="bold" font-size="14.00" fill="#008b8b">:|=</text>
<text text-anchor="start" x="51.5652" y="5.30087" font-family="Times,serif" font-size="14.00"> </text>
<text text-anchor="start" x="55.5652" y="5.30087" font-family="Times,serif" font-size="14.00" fill="#696969">D1</text>
<polygon fill="none" stroke="black" points="-48.4348,14.6009 -48.4348,-522.399 173.565,-522.399 173.565,14.6009 -48.4348,14.6009"/>
</g>
<!-- i2cLink[1][#397#] -->
<g id="node10" class="node"><title>i2cLink[1][#397#]</title>
<ellipse fill="black" stroke="black" cx="-266.128" cy="-97.3629" rx="1.8" ry="1.8"/>
</g>
<!-- apm3v3[1][#930#]&#45;&#45;i2cLink[1][#397#] -->
<g id="edge7" class="edge"><title>apm3v3[1][#930#]&#45;&#45;i2cLink[1][#397#]</title>
<path fill="none" stroke="black" d="M-56.5655,-197.165C-144.018,-155.517 -249.993,-105.047 -264.463,-98.156"/>
<polygon fill="none" stroke="black" points="-82.0655,-199.665 -82.0655,-220.665 -59.0655,-220.665 -59.0655,-199.665 -82.0655,-199.665"/>
<text text-anchor="start" x="-79.0655" y="-207.465" font-family="Times,serif" font-weight="bold" font-size="14.00">i2c</text>
<polygon fill="none" stroke="black" points="-85.5655,-197.165 -85.5655,-224.165 -56.5655,-224.165 -56.5655,-197.165 -85.5655,-197.165"/>
</g>
<!-- powerLink[2][#114#] -->
<g id="node11" class="node"><title>powerLink[2][#114#]</title>
<ellipse fill="black" stroke="black" cx="-131.777" cy="-46.4873" rx="1.8" ry="1.8"/>
</g>
<!-- apm3v3[1][#930#]&#45;&#45;powerLink[2][#114#] -->
<g id="edge14" class="edge"><title>apm3v3[1][#930#]&#45;&#45;powerLink[2][#114#]</title>
<path fill="none" stroke="black" d="M-56.6389,-126.678C-91.8384,-89.1114 -122.966,-55.8903 -130.198,-48.172"/>
<polygon fill="none" stroke="black" points="-109.639,-129.178 -109.639,-150.178 -59.6389,-150.178 -59.6389,-129.178 -109.639,-129.178"/>
<text text-anchor="start" x="-106.639" y="-136.978" font-family="Times,serif" font-weight="bold" font-size="14.00">3v3Out</text>
<polygon fill="none" stroke="black" points="-112.639,-126.678 -112.639,-153.678 -56.6389,-153.678 -56.6389,-126.678 -112.639,-126.678"/>
</g>
<!-- uartLink[1][#392#] -->
<g id="node12" class="node"><title>uartLink[1][#392#]</title>
<ellipse fill="black" stroke="black" cx="285.684" cy="-534.484" rx="1.8" ry="1.8"/>
</g>
<!-- apm3v3[1][#930#]&#45;&#45;uartLink[1][#392#] -->
<g id="edge15" class="edge"><title>apm3v3[1][#930#]&#45;&#45;uartLink[1][#392#]</title>
<path fill="none" stroke="black" d="M181.637,-403.639C229.819,-464.231 276.124,-522.462 284.382,-532.848"/>
<polygon fill="none" stroke="black" points="185.137,-406.139 185.137,-427.139 216.137,-427.139 216.137,-406.139 185.137,-406.139"/>
<text text-anchor="start" x="188.137" y="-413.939" font-family="Times,serif" font-weight="bold" font-size="14.00">uart</text>
<polygon fill="none" stroke="black" points="181.637,-403.639 181.637,-430.639 218.637,-430.639 218.637,-403.639 181.637,-403.639"/>
</g>
<!-- apm3v3[1][#930#]&#45;&#45;usbLink[1][#172#] -->
<g id="edge17" class="edge"><title>apm3v3[1][#930#]&#45;&#45;usbLink[1][#172#]</title>
<path fill="none" stroke="black" d="M181.797,-117.548C183.328,-115.814 184.852,-114.09 186.365,-112.378 251.926,-38.2184 333.535,52.4576 344.687,64.8422"/>
<polygon fill="none" stroke="black" points="185.297,-93.0483 185.297,-114.048 250.297,-114.048 250.297,-93.0483 185.297,-93.0483"/>
<text text-anchor="start" x="188.297" y="-100.848" font-family="Times,serif" font-weight="bold" font-size="14.00">usbDevice</text>
<polygon fill="none" stroke="black" points="181.797,-90.5483 181.797,-117.548 252.797,-117.548 252.797,-90.5483 181.797,-90.5483"/>
</g>
<!-- digitalAmplifier[1][#826#] -->
<g id="node3" class="node"><title>digitalAmplifier[1][#826#]</title>
<polygon fill="none" stroke="black" points="-633.702,40.6196 -633.702,19.6196 -439.702,19.6196 -439.702,40.6196 -633.702,40.6196"/>
<text text-anchor="start" x="-613.202" y="32.8196" font-family="Times,serif" font-weight="bold" font-size="14.00">digitalAmplifier[1][#826#]</text>
<polygon fill="none" stroke="black" points="-633.702,63.6196 -633.702,42.6196 -439.702,42.6196 -439.702,63.6196 -633.702,63.6196"/>
<text text-anchor="start" x="-630.702" y="55.8196" font-family="Times,serif" font-weight="bold" font-size="14.00">Signature: </text>
<text text-anchor="start" x="-565.702" y="55.8196" font-family="Times,serif" font-size="14.00">digitalAmplifier</text>
<polygon fill="none" stroke="black" points="-633.702,86.6196 -633.702,65.6196 -439.702,65.6196 -439.702,86.6196 -633.702,86.6196"/>
<text text-anchor="start" x="-630.702" y="78.8196" font-family="Times,serif" font-weight="bold" font-size="14.00">Ident: </text>
<text text-anchor="start" x="-590.702" y="78.8196" font-family="Times,serif" font-size="14.00">digitalAmplifier[1][#826#]</text>
<polygon fill="none" stroke="black" points="-633.702,109.62 -633.702,88.6196 -439.702,88.6196 -439.702,109.62 -633.702,109.62"/>
<text text-anchor="start" x="-630.702" y="101.82" font-family="Times,serif" font-weight="bold" font-size="14.00">Type: </text>
<text text-anchor="start" x="-592.702" y="101.82" font-family="Times,serif" font-size="14.00" fill="#000080">Record</text>
<text text-anchor="start" x="-552.702" y="101.82" font-family="Times,serif" font-size="14.00"> </text>
<text text-anchor="start" x="-548.702" y="101.82" font-family="Times,serif" font-weight="bold" font-size="14.00" fill="#008b8b">{</text>
<text text-anchor="start" x="-542.702" y="101.82" font-family="Times,serif" font-weight="bold" font-size="14.00" fill="#008b8b">}</text>
<polygon fill="none" stroke="black" points="-633.702,132.62 -633.702,111.62 -439.702,111.62 -439.702,132.62 -633.702,132.62"/>
<text text-anchor="start" x="-630.702" y="124.82" font-family="Times,serif" font-weight="bold" font-size="14.00">Resource Constraints: </text>
<text text-anchor="start" x="-497.702" y="124.82" font-family="Times,serif" font-size="14.00" fill="#cd0000">None</text>
<polygon fill="none" stroke="black" points="-636.702,135.12 -636.702,16.1196 -436.702,16.1196 -436.702,135.12 -636.702,135.12"/>
</g>
<!-- digitalLink[3][#207#] -->
<g id="node9" class="node"><title>digitalLink[3][#207#]</title>
<ellipse fill="black" stroke="black" cx="-875.917" cy="169.998" rx="1.8" ry="1.8"/>
</g>
<!-- digitalAmplifier[1][#826#]&#45;&#45;digitalLink[3][#207#] -->
<g id="edge5" class="edge"><title>digitalAmplifier[1][#826#]&#45;&#45;digitalLink[3][#207#]</title>
<path fill="none" stroke="black" d="M-644.964,105.741C-737.258,131.42 -857.56,164.891 -874.021,169.471"/>
<polygon fill="none" stroke="black" points="-695.964,103.241 -695.964,82.2411 -647.964,82.2411 -647.964,103.241 -695.964,103.241"/>
<text text-anchor="start" x="-692.964" y="95.4411" font-family="Times,serif" font-weight="bold" font-size="14.00">control</text>
<polygon fill="none" stroke="black" points="-698.964,105.741 -698.964,78.7411 -644.964,78.7411 -644.964,105.741 -698.964,105.741"/>
</g>
<!-- digitalAmplifier[1][#826#]&#45;&#45;digitalLink[3][#207#] -->
<g id="edge6" class="edge"><title>digitalAmplifier[1][#826#]&#45;&#45;digitalLink[3][#207#]</title>
<path fill="none" stroke="black" d="M-644.964,105.741C-737.258,131.42 -857.56,164.891 -874.021,169.471"/>
<polygon fill="none" stroke="black" points="-672.464,130.241 -672.464,109.241 -647.464,109.241 -647.464,130.241 -672.464,130.241"/>
<text text-anchor="start" x="-669.464" y="122.441" font-family="Times,serif" font-weight="bold" font-size="14.00">out</text>
<polygon fill="none" stroke="black" points="-675.964,132.741 -675.964,105.741 -644.964,105.741 -644.964,132.741 -675.964,132.741"/>
</g>
<!-- digitalAmplifier[1][#826#]&#45;&#45;powerLink[2][#114#] -->
<g id="edge11" class="edge"><title>digitalAmplifier[1][#826#]&#45;&#45;powerLink[2][#114#]</title>
<path fill="none" stroke="black" d="M-428.455,42.9774C-316.003,9.0671 -153.646,-39.8924 -133.791,-45.8799"/>
<polygon fill="none" stroke="black" points="-424.955,40.4774 -424.955,19.4774 -399.955,19.4774 -399.955,40.4774 -424.955,40.4774"/>
<text text-anchor="start" x="-421.955" y="32.6774" font-family="Times,serif" font-weight="bold" font-size="14.00">vin</text>
<polygon fill="none" stroke="black" points="-428.455,42.9774 -428.455,15.9774 -397.455,15.9774 -397.455,42.9774 -428.455,42.9774"/>
</g>
<!-- i2cPower[1][#409#] -->
<g id="node4" class="node"><title>i2cPower[1][#409#]</title>
<polygon fill="none" stroke="black" points="-455.699,-415.916 -455.699,-436.916 -286.699,-436.916 -286.699,-415.916 -455.699,-415.916"/>
<text text-anchor="start" x="-427.199" y="-423.716" font-family="Times,serif" font-weight="bold" font-size="14.00">i2cPower[1][#409#]</text>
<polygon fill="none" stroke="black" points="-455.699,-392.916 -455.699,-413.916 -286.699,-413.916 -286.699,-392.916 -455.699,-392.916"/>
<text text-anchor="start" x="-452.699" y="-400.716" font-family="Times,serif" font-weight="bold" font-size="14.00">Signature: </text>
<text text-anchor="start" x="-387.699" y="-400.716" font-family="Times,serif" font-size="14.00">i2cPower</text>
<polygon fill="none" stroke="black" points="-455.699,-369.916 -455.699,-390.916 -286.699,-390.916 -286.699,-369.916 -455.699,-369.916"/>
<text text-anchor="start" x="-452.699" y="-377.716" font-family="Times,serif" font-weight="bold" font-size="14.00">Ident: </text>
<text text-anchor="start" x="-412.699" y="-377.716" font-family="Times,serif" font-size="14.00">i2cPower[1][#409#]</text>
<polygon fill="none" stroke="black" points="-455.699,-346.916 -455.699,-367.916 -286.699,-367.916 -286.699,-346.916 -455.699,-346.916"/>
<text text-anchor="start" x="-452.699" y="-354.716" font-family="Times,serif" font-weight="bold" font-size="14.00">Type: </text>
<text text-anchor="start" x="-414.699" y="-354.716" font-family="Times,serif" font-size="14.00" fill="#000080">Record</text>
<text text-anchor="start" x="-374.699" y="-354.716" font-family="Times,serif" font-size="14.00"> </text>
<text text-anchor="start" x="-370.699" y="-354.716" font-family="Times,serif" font-weight="bold" font-size="14.00" fill="#008b8b">{</text>
<text text-anchor="start" x="-364.699" y="-354.716" font-family="Times,serif" font-weight="bold" font-size="14.00" fill="#008b8b">}</text>
<polygon fill="none" stroke="black" points="-455.699,-323.916 -455.699,-344.916 -286.699,-344.916 -286.699,-323.916 -455.699,-323.916"/>
<text text-anchor="start" x="-452.699" y="-331.716" font-family="Times,serif" font-weight="bold" font-size="14.00">Resource Constraints: </text>
<text text-anchor="start" x="-319.699" y="-331.716" font-family="Times,serif" font-size="14.00" fill="#cd0000">None</text>
<polygon fill="none" stroke="black" points="-459.199,-321.416 -459.199,-440.416 -284.199,-440.416 -284.199,-321.416 -459.199,-321.416"/>
</g>
<!-- i2cPower[1][#409#]&#45;&#45;i2cLink[1][#397#] -->
<g id="edge8" class="edge"><title>i2cPower[1][#409#]&#45;&#45;i2cLink[1][#397#]</title>
<path fill="none" stroke="black" d="M-348.007,-317.281C-319.07,-239.558 -273.168,-116.272 -266.857,-99.319"/>
<polygon fill="none" stroke="black" points="-383.007,-292.781 -383.007,-313.781 -351.007,-313.781 -351.007,-292.781 -383.007,-292.781"/>
<text text-anchor="start" x="-380.007" y="-300.581" font-family="Times,serif" font-weight="bold" font-size="14.00">vout</text>
<polygon fill="none" stroke="black" points="-386.007,-290.281 -386.007,-317.281 -348.007,-317.281 -348.007,-290.281 -386.007,-290.281"/>
</g>
<!-- i2cPower[1][#409#]&#45;&#45;powerLink[2][#114#] -->
<g id="edge10" class="edge"><title>i2cPower[1][#409#]&#45;&#45;powerLink[2][#114#]</title>
<path fill="none" stroke="black" d="M-326.007,-317.225C-260.202,-225.5 -145.242,-65.2571 -132.865,-48.0048"/>
<polygon fill="none" stroke="black" points="-322.507,-292.725 -322.507,-313.725 -297.507,-313.725 -297.507,-292.725 -322.507,-292.725"/>
<text text-anchor="start" x="-319.507" y="-300.525" font-family="Times,serif" font-weight="bold" font-size="14.00">vin</text>
<polygon fill="none" stroke="black" points="-326.007,-290.225 -326.007,-317.225 -295.007,-317.225 -295.007,-290.225 -326.007,-290.225"/>
</g>
<!-- openLog[1][#608#] -->
<g id="node5" class="node"><title>openLog[1][#608#]</title>
<polygon fill="none" stroke="black" points="200.565,-255.578 200.565,-276.578 376.565,-276.578 376.565,-255.578 200.565,-255.578"/>
<text text-anchor="start" x="234.065" y="-263.378" font-family="Times,serif" font-weight="bold" font-size="14.00">openLog[1][#608#]</text>
<polygon fill="none" stroke="black" points="200.565,-232.578 200.565,-253.578 376.565,-253.578 376.565,-232.578 200.565,-232.578"/>
<text text-anchor="start" x="203.565" y="-240.378" font-family="Times,serif" font-weight="bold" font-size="14.00">Signature: </text>
<text text-anchor="start" x="268.565" y="-240.378" font-family="Times,serif" font-size="14.00">Sparkfun OpenLog</text>
<polygon fill="none" stroke="black" points="200.565,-209.578 200.565,-230.578 376.565,-230.578 376.565,-209.578 200.565,-209.578"/>
<text text-anchor="start" x="203.565" y="-217.378" font-family="Times,serif" font-weight="bold" font-size="14.00">Ident: </text>
<text text-anchor="start" x="243.565" y="-217.378" font-family="Times,serif" font-size="14.00">openLog[1][#608#]</text>
<polygon fill="none" stroke="black" points="200.565,-145.578 200.565,-207.578 376.565,-207.578 376.565,-145.578 200.565,-145.578"/>
<text text-anchor="start" x="203.565" y="-194.378" font-family="Times,serif" font-weight="bold" font-size="14.00">Type: </text>
<text text-anchor="start" x="241.565" y="-194.378" font-family="Times,serif" font-size="14.00" fill="#000080">Record</text>
<text text-anchor="start" x="281.565" y="-194.378" font-family="Times,serif" font-size="14.00"> </text>
<text text-anchor="start" x="203.565" y="-180.378" font-family="Times,serif" font-weight="bold" font-size="14.00" fill="darkgreen"> &#160;&#160;&#160;regVoltage</text>
<text text-anchor="start" x="282.565" y="-180.378" font-family="Times,serif" font-size="14.00"> </text>
<text text-anchor="start" x="286.565" y="-180.378" font-family="Times,serif" font-weight="bold" font-size="14.00" fill="#008b8b">&lt;:=</text>
<text text-anchor="start" x="308.565" y="-180.378" font-family="Times,serif" font-size="14.00"> </text>
<text text-anchor="start" x="312.565" y="-180.378" font-family="Times,serif" font-size="14.00" fill="#000080">Record</text>
<text text-anchor="start" x="352.565" y="-180.378" font-family="Times,serif" font-size="14.00"> </text>
<text text-anchor="start" x="203.565" y="-166.378" font-family="Times,serif" font-weight="bold" font-size="14.00" fill="darkgreen"> &#160;&#160;&#160;&#160;&#160;&#160;&#160;max</text>
<text text-anchor="start" x="259.565" y="-166.378" font-family="Times,serif" font-size="14.00"> </text>
<text text-anchor="start" x="263.565" y="-166.378" font-family="Times,serif" font-weight="bold" font-size="14.00" fill="#008b8b">&lt;:=</text>
<text text-anchor="start" x="285.565" y="-166.378" font-family="Times,serif" font-size="14.00"> </text>
<text text-anchor="start" x="289.565" y="-166.378" font-family="Times,serif" font-size="14.00" fill="#000080">Float</text>
<text text-anchor="start" x="317.565" y="-166.378" font-family="Times,serif" font-size="14.00"> </text>
<text text-anchor="start" x="321.565" y="-166.378" font-family="Times,serif" font-size="14.00" fill="maroon">3.201</text>
<text text-anchor="start" x="203.565" y="-152.378" font-family="Times,serif" font-weight="bold" font-size="14.00" fill="darkgreen"> &#160;&#160;&#160;&#160;&#160;&#160;&#160;min</text>
<text text-anchor="start" x="257.565" y="-152.378" font-family="Times,serif" font-size="14.00"> </text>
<text text-anchor="start" x="261.565" y="-152.378" font-family="Times,serif" font-weight="bold" font-size="14.00" fill="#008b8b">&lt;:=</text>
<text text-anchor="start" x="283.565" y="-152.378" font-family="Times,serif" font-size="14.00"> </text>
<text text-anchor="start" x="287.565" y="-152.378" font-family="Times,serif" font-size="14.00" fill="#000080">Float</text>
<text text-anchor="start" x="315.565" y="-152.378" font-family="Times,serif" font-size="14.00"> </text>
<text text-anchor="start" x="319.565" y="-152.378" font-family="Times,serif" font-size="14.00" fill="maroon">3.069</text>
<polygon fill="none" stroke="black" points="200.565,-122.578 200.565,-143.578 376.565,-143.578 376.565,-122.578 200.565,-122.578"/>
<text text-anchor="start" x="203.565" y="-130.378" font-family="Times,serif" font-weight="bold" font-size="14.00">Resource Constraints: </text>
<text text-anchor="start" x="336.565" y="-130.378" font-family="Times,serif" font-size="14.00" fill="#cd0000">None</text>
<polygon fill="none" stroke="black" points="197.565,-119.578 197.565,-279.578 379.565,-279.578 379.565,-119.578 197.565,-119.578"/>
</g>
<!-- openLog[1][#608#]&#45;&#45;apiLink[8][#50#] -->
<g id="edge4" class="edge"><title>openLog[1][#608#]&#45;&#45;apiLink[8][#50#]</title>
<path fill="none" stroke="black" d="M387.604,-139.293C483.822,-80.7252 617.772,0.809562 634.14,10.7726"/>
<polygon fill="none" stroke="black" points="391.104,-141.793 391.104,-162.793 416.104,-162.793 416.104,-141.793 391.104,-141.793"/>
<text text-anchor="start" x="394.104" y="-149.593" font-family="Times,serif" font-weight="bold" font-size="14.00">api</text>
<polygon fill="none" stroke="black" points="387.604,-139.293 387.604,-166.293 418.604,-166.293 418.604,-139.293 387.604,-139.293"/>
</g>
<!-- openLog[1][#608#]&#45;&#45;powerLink[2][#114#] -->
<g id="edge13" class="edge"><title>openLog[1][#608#]&#45;&#45;powerLink[2][#114#]</title>
<path fill="none" stroke="black" d="M272.463,-115.509C258.273,-66.3934 232.144,-8.3124 184.765,21.8009 93.0926,80.0668 41.2798,61.9884 -59.6348,21.8009 -96.1653,7.25323 -124.85,-35.5485 -130.687,-44.7373"/>
<polygon fill="none" stroke="black" points="275.963,-91.0093 275.963,-112.009 300.963,-112.009 300.963,-91.0093 275.963,-91.0093"/>
<text text-anchor="start" x="278.963" y="-98.8093" font-family="Times,serif" font-weight="bold" font-size="14.00">vin</text>
<polygon fill="none" stroke="black" points="272.463,-88.5093 272.463,-115.509 303.463,-115.509 303.463,-88.5093 272.463,-88.5093"/>
</g>
<!-- openLog[1][#608#]&#45;&#45;uartLink[1][#392#] -->
<g id="edge16" class="edge"><title>openLog[1][#608#]&#45;&#45;uartLink[1][#392#]</title>
<path fill="none" stroke="black" d="M287.842,-283.656C287.045,-376.274 285.855,-514.578 285.701,-532.538"/>
<polygon fill="none" stroke="black" points="254.342,-286.156 254.342,-307.156 285.342,-307.156 285.342,-286.156 254.342,-286.156"/>
<text text-anchor="start" x="257.342" y="-293.956" font-family="Times,serif" font-weight="bold" font-size="14.00">uart</text>
<polygon fill="none" stroke="black" points="250.842,-283.656 250.842,-310.656 287.842,-310.656 287.842,-283.656 250.842,-283.656"/>
</g>
<!-- tmp102[1][#498#] -->
<g id="node6" class="node"><title>tmp102[1][#498#]</title>
<polygon fill="none" stroke="black" points="-223.794,258.762 -223.794,237.762 -26.7937,237.762 -26.7937,258.762 -223.794,258.762"/>
<text text-anchor="start" x="-176.794" y="250.962" font-family="Times,serif" font-weight="bold" font-size="14.00">tmp102[1][#498#]</text>
<polygon fill="none" stroke="black" points="-223.794,281.762 -223.794,260.762 -26.7937,260.762 -26.7937,281.762 -223.794,281.762"/>
<text text-anchor="start" x="-220.794" y="273.962" font-family="Times,serif" font-weight="bold" font-size="14.00">Signature: </text>
<text text-anchor="start" x="-155.794" y="273.962" font-family="Times,serif" font-size="14.00">TMP102 Temp Sensor</text>
<polygon fill="none" stroke="black" points="-223.794,304.762 -223.794,283.762 -26.7937,283.762 -26.7937,304.762 -223.794,304.762"/>
<text text-anchor="start" x="-220.794" y="296.962" font-family="Times,serif" font-weight="bold" font-size="14.00">Ident: </text>
<text text-anchor="start" x="-180.794" y="296.962" font-family="Times,serif" font-size="14.00">tmp102[1][#498#]</text>
<polygon fill="none" stroke="black" points="-223.794,327.762 -223.794,306.762 -26.7937,306.762 -26.7937,327.762 -223.794,327.762"/>
<text text-anchor="start" x="-220.794" y="319.962" font-family="Times,serif" font-weight="bold" font-size="14.00">Type: </text>
<text text-anchor="start" x="-182.794" y="319.962" font-family="Times,serif" font-size="14.00" fill="#000080">Record</text>
<text text-anchor="start" x="-142.794" y="319.962" font-family="Times,serif" font-size="14.00"> </text>
<text text-anchor="start" x="-138.794" y="319.962" font-family="Times,serif" font-weight="bold" font-size="14.00" fill="#008b8b">{</text>
<text text-anchor="start" x="-132.794" y="319.962" font-family="Times,serif" font-weight="bold" font-size="14.00" fill="#008b8b">}</text>
<polygon fill="none" stroke="black" points="-223.794,350.762 -223.794,329.762 -26.7937,329.762 -26.7937,350.762 -223.794,350.762"/>
<text text-anchor="start" x="-220.794" y="342.962" font-family="Times,serif" font-weight="bold" font-size="14.00">Resource Constraints: </text>
<text text-anchor="start" x="-87.7937" y="342.962" font-family="Times,serif" font-size="14.00" fill="#cd0000">None</text>
<polygon fill="none" stroke="black" points="-227.294,353.262 -227.294,234.262 -24.2937,234.262 -24.2937,353.262 -227.294,353.262"/>
</g>
<!-- tmp102[1][#498#]&#45;&#45;apiLink[6][#36#] -->
<g id="edge2" class="edge"><title>tmp102[1][#498#]&#45;&#45;apiLink[6][#36#]</title>
<path fill="none" stroke="black" d="M-47.261,357.395C35.7632,424.668 156.8,522.741 171.605,534.737"/>
<polygon fill="none" stroke="black" points="-74.761,381.895 -74.761,360.895 -49.761,360.895 -49.761,381.895 -74.761,381.895"/>
<text text-anchor="start" x="-71.761" y="374.095" font-family="Times,serif" font-weight="bold" font-size="14.00">api</text>
<polygon fill="none" stroke="black" points="-78.261,384.395 -78.261,357.395 -47.261,357.395 -47.261,384.395 -78.261,384.395"/>
</g>
<!-- tmp102[1][#498#]&#45;&#45;i2cLink[1][#397#] -->
<g id="edge9" class="edge"><title>tmp102[1][#498#]&#45;&#45;i2cLink[1][#397#]</title>
<path fill="none" stroke="black" d="M-148.653,230.05C-186.244,125.281 -257.742,-73.9904 -265.45,-95.4724"/>
<polygon fill="none" stroke="black" points="-174.153,227.55 -174.153,206.55 -151.153,206.55 -151.153,227.55 -174.153,227.55"/>
<text text-anchor="start" x="-171.153" y="219.75" font-family="Times,serif" font-weight="bold" font-size="14.00">i2c</text>
<polygon fill="none" stroke="black" points="-177.653,230.05 -177.653,203.05 -148.653,203.05 -148.653,230.05 -177.653,230.05"/>
</g>
<!-- tmp102[1][#498#]&#45;&#45;powerLink[2][#114#] -->
<g id="edge12" class="edge"><title>tmp102[1][#498#]&#45;&#45;powerLink[2][#114#]</title>
<path fill="none" stroke="black" d="M-126.912,230.163C-128.535,137.837 -131.39,-24.5274 -131.741,-44.4623"/>
<polygon fill="none" stroke="black" points="-123.412,227.663 -123.412,206.663 -98.412,206.663 -98.412,227.663 -123.412,227.663"/>
<text text-anchor="start" x="-120.412" y="219.863" font-family="Times,serif" font-weight="bold" font-size="14.00">vin</text>
<polygon fill="none" stroke="black" points="-126.912,230.163 -126.912,203.163 -95.912,203.163 -95.912,230.163 -126.912,230.163"/>
</g>
</g>
</svg>
