<?xml version="1.0" encoding="UTF-8" standalone="no"?>
<!DOCTYPE svg PUBLIC "-//W3C//DTD SVG 1.1//EN"
 "http://www.w3.org/Graphics/SVG/1.1/DTD/svg11.dtd">
<!-- Generated by graphviz version 2.38.0 (20140413.2041)
 -->
<!-- Title: %3 Pages: 1 -->
<svg width="727pt" height="580pt"
 viewBox="0.00 0.00 727.27 579.55" xmlns="http://www.w3.org/2000/svg" xmlns:xlink="http://www.w3.org/1999/xlink">
<g id="graph0" class="graph" transform="scale(1 1) rotate(0) translate(383.661 281.828)">
<title>%3</title>
<polygon fill="white" stroke="none" points="-383.661,297.722 -383.661,-281.828 343.614,-281.828 343.614,297.722 -383.661,297.722"/>
<!-- Seed[#1282#] -->
<g id="node1" class="node"><title>Seed[#1282#]</title>
<polygon fill="none" stroke="black" points="-236.941,-215.948 -236.941,-236.948 -65.9414,-236.948 -65.9414,-215.948 -236.941,-215.948"/>
<text text-anchor="start" x="-189.941" y="-223.748" font-family="Times,serif" font-weight="bold" font-size="14.00">Seed[#1282#]</text>
<polygon fill="none" stroke="black" points="-236.941,-192.948 -236.941,-213.948 -65.9414,-213.948 -65.9414,-192.948 -236.941,-192.948"/>
<text text-anchor="start" x="-233.941" y="-200.748" font-family="Times,serif" font-weight="bold" font-size="14.00">Signature: </text>
<text text-anchor="start" x="-168.941" y="-200.748" font-family="Times,serif" font-size="14.00">controlLogic</text>
<polygon fill="none" stroke="black" points="-236.941,-169.948 -236.941,-190.948 -65.9414,-190.948 -65.9414,-169.948 -236.941,-169.948"/>
<text text-anchor="start" x="-233.941" y="-177.748" font-family="Times,serif" font-weight="bold" font-size="14.00">Ident: </text>
<text text-anchor="start" x="-193.941" y="-177.748" font-family="Times,serif" font-size="14.00">Seed[#1282#]</text>
<polygon fill="none" stroke="black" points="-236.941,-133.948 -236.941,-167.948 -65.9414,-167.948 -65.9414,-133.948 -236.941,-133.948"/>
<text text-anchor="start" x="-233.941" y="-154.748" font-family="Times,serif" font-weight="bold" font-size="14.00">Type: </text>
<text text-anchor="start" x="-195.941" y="-154.748" font-family="Times,serif" font-size="14.00" fill="#000080">Record</text>
<text text-anchor="start" x="-155.941" y="-154.748" font-family="Times,serif" font-size="14.00"> </text>
<text text-anchor="start" x="-233.941" y="-140.748" font-family="Times,serif" font-weight="bold" font-size="14.00" fill="darkgreen"> &#160;&#160;&#160;controlUid</text>
<text text-anchor="start" x="-155.941" y="-140.748" font-family="Times,serif" font-size="14.00"> </text>
<text text-anchor="start" x="-151.941" y="-140.748" font-family="Times,serif" font-weight="bold" font-size="14.00" fill="#008b8b">&lt;:=</text>
<text text-anchor="start" x="-129.941" y="-140.748" font-family="Times,serif" font-size="14.00"> </text>
<text text-anchor="start" x="-125.941" y="-140.748" font-family="Times,serif" font-size="14.00" fill="#000080">UID</text>
<text text-anchor="start" x="-100.941" y="-140.748" font-family="Times,serif" font-size="14.00"> </text>
<text text-anchor="start" x="-96.9414" y="-140.748" font-family="Times,serif" font-size="14.00" fill="#ee7600">1201</text>
<polygon fill="none" stroke="black" points="-236.941,-110.948 -236.941,-131.948 -65.9414,-131.948 -65.9414,-110.948 -236.941,-110.948"/>
<text text-anchor="start" x="-233.941" y="-118.748" font-family="Times,serif" font-weight="bold" font-size="14.00">Resource Constraints: </text>
<text text-anchor="start" x="-100.941" y="-118.748" font-family="Times,serif" font-size="14.00" fill="#cd0000">None</text>
<polygon fill="none" stroke="black" points="-240.441,-107.948 -240.441,-239.948 -63.4414,-239.948 -63.4414,-107.948 -240.441,-107.948"/>
</g>
<!-- apiLink[2][#8#] -->
<g id="node5" class="node"><title>apiLink[2][#8#]</title>
<ellipse fill="black" stroke="black" cx="44.2205" cy="-276.028" rx="1.8" ry="1.8"/>
</g>
<!-- Seed[#1282#]&#45;&#45;apiLink[2][#8#] -->
<g id="edge1" class="edge"><title>Seed[#1282#]&#45;&#45;apiLink[2][#8#]</title>
<path fill="none" stroke="black" d="M-55.2971,-224.241C-11.1981,-247.189 33.2882,-270.339 42.492,-275.129"/>
<polygon fill="none" stroke="black" points="-51.7971,-226.741 -51.7971,-247.741 -6.79711,-247.741 -6.79711,-226.741 -51.7971,-226.741"/>
<text text-anchor="start" x="-48.7971" y="-234.541" font-family="Times,serif" font-weight="bold" font-size="14.00">button</text>
<polygon fill="none" stroke="black" points="-55.2971,-224.241 -55.2971,-251.241 -4.29711,-251.241 -4.29711,-224.241 -55.2971,-224.241"/>
</g>
<!-- apiLink[5][#29#] -->
<g id="node6" class="node"><title>apiLink[5][#29#]</title>
<ellipse fill="black" stroke="black" cx="-325.617" cy="-40.4091" rx="1.8" ry="1.8"/>
</g>
<!-- Seed[#1282#]&#45;&#45;apiLink[5][#29#] -->
<g id="edge3" class="edge"><title>Seed[#1282#]&#45;&#45;apiLink[5][#29#]</title>
<path fill="none" stroke="black" d="M-243.103,-103.854C-279.792,-75.6439 -315.45,-48.2265 -323.791,-41.8129"/>
<polygon fill="none" stroke="black" points="-270.103,-79.3545 -270.103,-100.354 -246.103,-100.354 -246.103,-79.3545 -270.103,-79.3545"/>
<text text-anchor="start" x="-267.103" y="-87.1545" font-family="Times,serif" font-weight="bold" font-size="14.00">led</text>
<polygon fill="none" stroke="black" points="-273.103,-76.8545 -273.103,-103.854 -243.103,-103.854 -243.103,-76.8545 -273.103,-76.8545"/>
</g>
<!-- usbLink[1][#172#] -->
<g id="node10" class="node"><title>usbLink[1][#172#]</title>
<ellipse fill="black" stroke="black" cx="-50.6227" cy="-4.64109" rx="1.8" ry="1.8"/>
</g>
<!-- Seed[#1282#]&#45;&#45;usbLink[1][#172#] -->
<g id="edge12" class="edge"><title>Seed[#1282#]&#45;&#45;usbLink[1][#172#]</title>
<path fill="none" stroke="black" d="M-109.853,-103.618C-85.0609,-62.1885 -57.4475,-16.0455 -51.7037,-6.44738"/>
<polygon fill="none" stroke="black" points="-167.353,-79.1177 -167.353,-100.118 -112.353,-100.118 -112.353,-79.1177 -167.353,-79.1177"/>
<text text-anchor="start" x="-164.353" y="-86.9177" font-family="Times,serif" font-weight="bold" font-size="14.00">usbHost</text>
<polygon fill="none" stroke="black" points="-170.853,-76.6177 -170.853,-103.618 -109.853,-103.618 -109.853,-76.6177 -170.853,-76.6177"/>
</g>
<!-- button[3][#442#] -->
<g id="node2" class="node"><title>button[3][#442#]</title>
<polygon fill="none" stroke="black" points="160.114,-203.94 160.114,-224.94 329.114,-224.94 329.114,-203.94 160.114,-203.94"/>
<text text-anchor="start" x="196.114" y="-211.74" font-family="Times,serif" font-weight="bold" font-size="14.00">button[3][#442#]</text>
<polygon fill="none" stroke="black" points="160.114,-180.94 160.114,-201.94 329.114,-201.94 329.114,-180.94 160.114,-180.94"/>
<text text-anchor="start" x="163.114" y="-188.74" font-family="Times,serif" font-weight="bold" font-size="14.00">Signature: </text>
<text text-anchor="start" x="228.114" y="-188.74" font-family="Times,serif" font-size="14.00">tactileSwitch</text>
<polygon fill="none" stroke="black" points="160.114,-157.94 160.114,-178.94 329.114,-178.94 329.114,-157.94 160.114,-157.94"/>
<text text-anchor="start" x="163.114" y="-165.74" font-family="Times,serif" font-weight="bold" font-size="14.00">Ident: </text>
<text text-anchor="start" x="203.114" y="-165.74" font-family="Times,serif" font-size="14.00">button[3][#442#]</text>
<polygon fill="none" stroke="black" points="160.114,-134.94 160.114,-155.94 329.114,-155.94 329.114,-134.94 160.114,-134.94"/>
<text text-anchor="start" x="163.114" y="-142.74" font-family="Times,serif" font-weight="bold" font-size="14.00">Type: </text>
<text text-anchor="start" x="201.114" y="-142.74" font-family="Times,serif" font-size="14.00" fill="#000080">Record</text>
<text text-anchor="start" x="241.114" y="-142.74" font-family="Times,serif" font-size="14.00"> </text>
<text text-anchor="start" x="245.114" y="-142.74" font-family="Times,serif" font-weight="bold" font-size="14.00" fill="#008b8b">{</text>
<text text-anchor="start" x="251.114" y="-142.74" font-family="Times,serif" font-weight="bold" font-size="14.00" fill="#008b8b">}</text>
<polygon fill="none" stroke="black" points="160.114,-111.94 160.114,-132.94 329.114,-132.94 329.114,-111.94 160.114,-111.94"/>
<text text-anchor="start" x="163.114" y="-119.74" font-family="Times,serif" font-weight="bold" font-size="14.00">Resource Constraints: </text>
<text text-anchor="start" x="296.114" y="-119.74" font-family="Times,serif" font-size="14.00" fill="#cd0000">None</text>
<polygon fill="none" stroke="black" points="156.614,-109.44 156.614,-228.44 331.614,-228.44 331.614,-109.44 156.614,-109.44"/>
</g>
<!-- button[3][#442#]&#45;&#45;apiLink[2][#8#] -->
<g id="edge2" class="edge"><title>button[3][#442#]&#45;&#45;apiLink[2][#8#]</title>
<path fill="none" stroke="black" d="M148.558,-220.132C102.786,-244.653 55.7835,-269.834 46.0493,-275.049"/>
<polygon fill="none" stroke="black" points="121.058,-222.632 121.058,-243.632 146.058,-243.632 146.058,-222.632 121.058,-222.632"/>
<text text-anchor="start" x="124.058" y="-230.432" font-family="Times,serif" font-weight="bold" font-size="14.00">api</text>
<polygon fill="none" stroke="black" points="117.558,-220.132 117.558,-247.132 148.558,-247.132 148.558,-220.132 117.558,-220.132"/>
</g>
<!-- digitalBidirSourceLink[6][#332#] -->
<g id="node8" class="node"><title>digitalBidirSourceLink[6][#332#]</title>
<ellipse fill="black" stroke="black" cx="295.413" cy="70.0009" rx="1.8" ry="1.8"/>
</g>
<!-- button[3][#442#]&#45;&#45;digitalBidirSourceLink[6][#332#] -->
<g id="edge8" class="edge"><title>button[3][#442#]&#45;&#45;digitalBidirSourceLink[6][#332#]</title>
<path fill="none" stroke="black" d="M257.794,-105.222C271.803,-39.9691 291.954,53.8876 295.017,68.1544"/>
<polygon fill="none" stroke="black" points="261.294,-80.7219 261.294,-101.722 286.294,-101.722 286.294,-80.7219 261.294,-80.7219"/>
<text text-anchor="start" x="264.294" y="-88.5219" font-family="Times,serif" font-weight="bold" font-size="14.00">out</text>
<polygon fill="none" stroke="black" points="257.794,-78.2219 257.794,-105.222 288.794,-105.222 288.794,-78.2219 257.794,-78.2219"/>
</g>
<!-- powerLink[1][#85#] -->
<g id="node9" class="node"><title>powerLink[1][#85#]</title>
<ellipse fill="black" stroke="black" cx="217.957" cy="-1.58183" rx="1.8" ry="1.8"/>
</g>
<!-- button[3][#442#]&#45;&#45;powerLink[1][#85#] -->
<g id="edge9" class="edge"><title>button[3][#442#]&#45;&#45;powerLink[1][#85#]</title>
<path fill="none" stroke="black" d="M234.15,-105.191C227.567,-63.0691 219.865,-13.7927 218.259,-3.5174"/>
<polygon fill="none" stroke="black" points="206.65,-80.6915 206.65,-101.691 231.65,-101.691 231.65,-80.6915 206.65,-80.6915"/>
<text text-anchor="start" x="209.65" y="-88.4915" font-family="Times,serif" font-weight="bold" font-size="14.00">vin</text>
<polygon fill="none" stroke="black" points="203.15,-78.1915 203.15,-105.191 234.15,-105.191 234.15,-78.1915 203.15,-78.1915"/>
</g>
<!-- led[3][#482#] -->
<g id="node3" class="node"><title>led[3][#482#]</title>
<polygon fill="none" stroke="black" points="-368.161,142.943 -368.161,121.943 -199.161,121.943 -199.161,142.943 -368.161,142.943"/>
<text text-anchor="start" x="-321.661" y="135.143" font-family="Times,serif" font-weight="bold" font-size="14.00">led[3][#482#]</text>
<polygon fill="none" stroke="black" points="-368.161,165.943 -368.161,144.943 -199.161,144.943 -199.161,165.943 -368.161,165.943"/>
<text text-anchor="start" x="-365.161" y="158.143" font-family="Times,serif" font-weight="bold" font-size="14.00">Signature: </text>
<text text-anchor="start" x="-300.161" y="158.143" font-family="Times,serif" font-size="14.00">5mmLed</text>
<polygon fill="none" stroke="black" points="-368.161,188.943 -368.161,167.943 -199.161,167.943 -199.161,188.943 -368.161,188.943"/>
<text text-anchor="start" x="-365.161" y="181.143" font-family="Times,serif" font-weight="bold" font-size="14.00">Ident: </text>
<text text-anchor="start" x="-325.161" y="181.143" font-family="Times,serif" font-size="14.00">led[3][#482#]</text>
<polygon fill="none" stroke="black" points="-368.161,211.943 -368.161,190.943 -199.161,190.943 -199.161,211.943 -368.161,211.943"/>
<text text-anchor="start" x="-365.161" y="204.143" font-family="Times,serif" font-weight="bold" font-size="14.00">Type: </text>
<text text-anchor="start" x="-327.161" y="204.143" font-family="Times,serif" font-size="14.00" fill="#000080">Record</text>
<text text-anchor="start" x="-287.161" y="204.143" font-family="Times,serif" font-size="14.00"> </text>
<text text-anchor="start" x="-283.161" y="204.143" font-family="Times,serif" font-weight="bold" font-size="14.00" fill="#008b8b">{</text>
<text text-anchor="start" x="-277.161" y="204.143" font-family="Times,serif" font-weight="bold" font-size="14.00" fill="#008b8b">}</text>
<polygon fill="none" stroke="black" points="-368.161,234.943 -368.161,213.943 -199.161,213.943 -199.161,234.943 -368.161,234.943"/>
<text text-anchor="start" x="-365.161" y="227.143" font-family="Times,serif" font-weight="bold" font-size="14.00">Resource Constraints: </text>
<text text-anchor="start" x="-232.161" y="227.143" font-family="Times,serif" font-size="14.00" fill="#cd0000">None</text>
<polygon fill="none" stroke="black" points="-371.661,237.443 -371.661,118.443 -196.661,118.443 -196.661,237.443 -371.661,237.443"/>
</g>
<!-- led[3][#482#]&#45;&#45;apiLink[5][#29#] -->
<g id="edge4" class="edge"><title>led[3][#482#]&#45;&#45;apiLink[5][#29#]</title>
<path fill="none" stroke="black" d="M-296.263,114.199C-307.448,55.2885 -322.711,-25.1029 -325.252,-38.4851"/>
<polygon fill="none" stroke="black" points="-323.763,111.699 -323.763,90.6995 -298.763,90.6995 -298.763,111.699 -323.763,111.699"/>
<text text-anchor="start" x="-320.763" y="103.899" font-family="Times,serif" font-weight="bold" font-size="14.00">api</text>
<polygon fill="none" stroke="black" points="-327.263,114.199 -327.263,87.1995 -296.263,87.1995 -296.263,114.199 -327.263,114.199"/>
</g>
<!-- digitalBidirSinkLink[4][#260#] -->
<g id="node7" class="node"><title>digitalBidirSinkLink[4][#260#]</title>
<ellipse fill="black" stroke="black" cx="-82.0185" cy="270.382" rx="1.8" ry="1.8"/>
</g>
<!-- led[3][#482#]&#45;&#45;digitalBidirSinkLink[4][#260#] -->
<g id="edge6" class="edge"><title>led[3][#482#]&#45;&#45;digitalBidirSinkLink[4][#260#]</title>
<path fill="none" stroke="black" d="M-188.418,221.726C-141.885,243.006 -93.8414,264.976 -83.8886,269.527"/>
<polygon fill="none" stroke="black" points="-185.418,219.226 -185.418,198.226 -141.418,198.226 -141.418,219.226 -185.418,219.226"/>
<text text-anchor="start" x="-182.418" y="211.426" font-family="Times,serif" font-weight="bold" font-size="14.00">source</text>
<polygon fill="none" stroke="black" points="-188.418,221.726 -188.418,194.726 -138.418,194.726 -138.418,221.726 -188.418,221.726"/>
</g>
<!-- trinket3v3[1][#1201#] -->
<g id="node4" class="node"><title>trinket3v3[1][#1201#]</title>
<polygon fill="none" stroke="black" points="-11.3431,29.2225 -11.3431,8.22247 197.657,8.22247 197.657,29.2225 -11.3431,29.2225"/>
<text text-anchor="start" x="30.1569" y="21.4225" font-family="Times,serif" font-weight="bold" font-size="14.00">trinket3v3[1][#1201#]</text>
<polygon fill="none" stroke="black" points="-11.3431,52.2225 -11.3431,31.2225 197.657,31.2225 197.657,52.2225 -11.3431,52.2225"/>
<text text-anchor="start" x="-8.34311" y="44.4225" font-family="Times,serif" font-weight="bold" font-size="14.00">Signature: </text>
<text text-anchor="start" x="56.6569" y="44.4225" font-family="Times,serif" font-size="14.00">Arduino Trinket 3.3v</text>
<polygon fill="none" stroke="black" points="-11.3431,75.2225 -11.3431,54.2225 197.657,54.2225 197.657,75.2225 -11.3431,75.2225"/>
<text text-anchor="start" x="-8.34311" y="67.4225" font-family="Times,serif" font-weight="bold" font-size="14.00">Ident: </text>
<text text-anchor="start" x="31.6569" y="67.4225" font-family="Times,serif" font-size="14.00">trinket3v3[1][#1201#]</text>
<polygon fill="none" stroke="black" points="-11.3431,139.222 -11.3431,77.2225 197.657,77.2225 197.657,139.222 -11.3431,139.222"/>
<text text-anchor="start" x="-8.34311" y="90.4225" font-family="Times,serif" font-weight="bold" font-size="14.00">Type: </text>
<text text-anchor="start" x="29.6569" y="90.4225" font-family="Times,serif" font-size="14.00" fill="#000080">Record</text>
<text text-anchor="start" x="69.6569" y="90.4225" font-family="Times,serif" font-size="14.00"> </text>
<text text-anchor="start" x="-8.34311" y="104.422" font-family="Times,serif" font-weight="bold" font-size="14.00" fill="darkgreen"> &#160;&#160;&#160;MHz</text>
<text text-anchor="start" x="37.6569" y="104.422" font-family="Times,serif" font-size="14.00"> </text>
<text text-anchor="start" x="41.6569" y="104.422" font-family="Times,serif" font-weight="bold" font-size="14.00" fill="#008b8b">&lt;:=</text>
<text text-anchor="start" x="63.6569" y="104.422" font-family="Times,serif" font-size="14.00"> </text>
<text text-anchor="start" x="67.6569" y="104.422" font-family="Times,serif" font-size="14.00" fill="#000080">Float</text>
<text text-anchor="start" x="95.6569" y="104.422" font-family="Times,serif" font-size="14.00"> </text>
<text text-anchor="start" x="99.6569" y="104.422" font-family="Times,serif" font-size="14.00" fill="maroon">8.0</text>
<text text-anchor="start" x="-8.34311" y="118.422" font-family="Times,serif" font-weight="bold" font-size="14.00" fill="darkgreen"> &#160;&#160;&#160;intCurrentMax</text>
<text text-anchor="start" x="97.6569" y="118.422" font-family="Times,serif" font-size="14.00"> </text>
<text text-anchor="start" x="101.657" y="118.422" font-family="Times,serif" font-weight="bold" font-size="14.00" fill="#008b8b">&lt;:=</text>
<text text-anchor="start" x="123.657" y="118.422" font-family="Times,serif" font-size="14.00"> </text>
<text text-anchor="start" x="127.657" y="118.422" font-family="Times,serif" font-size="14.00" fill="#000080">Float</text>
<text text-anchor="start" x="155.657" y="118.422" font-family="Times,serif" font-size="14.00"> </text>
<text text-anchor="start" x="159.657" y="118.422" font-family="Times,serif" font-size="14.00" fill="maroon">2.2e&#45;2</text>
<text text-anchor="start" x="-8.34311" y="132.422" font-family="Times,serif" font-weight="bold" font-size="14.00" fill="darkgreen"> &#160;&#160;&#160;intCurrentMin</text>
<text text-anchor="start" x="94.6569" y="132.422" font-family="Times,serif" font-size="14.00"> </text>
<text text-anchor="start" x="98.6569" y="132.422" font-family="Times,serif" font-weight="bold" font-size="14.00" fill="#008b8b">&lt;:=</text>
<text text-anchor="start" x="120.657" y="132.422" font-family="Times,serif" font-size="14.00"> </text>
<text text-anchor="start" x="124.657" y="132.422" font-family="Times,serif" font-size="14.00" fill="#000080">Float</text>
<text text-anchor="start" x="152.657" y="132.422" font-family="Times,serif" font-size="14.00"> </text>
<text text-anchor="start" x="156.657" y="132.422" font-family="Times,serif" font-size="14.00" fill="maroon">1.1e&#45;2</text>
<polygon fill="none" stroke="black" points="-11.3431,287.222 -11.3431,141.222 197.657,141.222 197.657,287.222 -11.3431,287.222"/>
<text text-anchor="start" x="-8.34311" y="154.422" font-family="Times,serif" font-weight="bold" font-size="14.00">Resource Constraints: </text>
<text text-anchor="start" x="-8.34311" y="168.422" font-family="Times,serif" font-weight="bold" font-size="14.00" fill="darkorchid"> &#160;&#160;&#160;gpio1dig</text>
<text text-anchor="start" x="56.6569" y="168.422" font-family="Times,serif" font-size="14.00"> </text>
<text text-anchor="start" x="60.6569" y="168.422" font-family="Times,serif" font-size="14.00" fill="darkolivegreen">Used</text>
<text text-anchor="start" x="-8.34311" y="182.422" font-family="Times,serif" font-weight="bold" font-size="14.00" fill="#6959cd"> &#160;&#160;&#160;&#160;&#160;&#160;&#160;gpio1</text>
<text text-anchor="start" x="53.6569" y="182.422" font-family="Times,serif" font-size="14.00"> </text>
<text text-anchor="start" x="57.6569" y="182.422" font-family="Times,serif" font-weight="bold" font-size="14.00" fill="#008b8b">:|=</text>
<text text-anchor="start" x="73.6569" y="182.422" font-family="Times,serif" font-size="14.00"> </text>
<text text-anchor="start" x="77.6569" y="182.422" font-family="Times,serif" font-size="14.00" fill="#696969">Pin1</text>
<text text-anchor="start" x="-8.34311" y="196.422" font-family="Times,serif" font-weight="bold" font-size="14.00" fill="darkorchid"> &#160;&#160;&#160;gpio1pwm</text>
<text text-anchor="start" x="67.6569" y="196.422" font-family="Times,serif" font-size="14.00"> </text>
<text text-anchor="start" x="71.6569" y="196.422" font-family="Times,serif" font-size="14.00" fill="#cd0000">Unused</text>
<text text-anchor="start" x="-8.34311" y="210.422" font-family="Times,serif" font-weight="bold" font-size="14.00" fill="darkorchid"> &#160;&#160;&#160;gpio2dig</text>
<text text-anchor="start" x="56.6569" y="210.422" font-family="Times,serif" font-size="14.00"> </text>
<text text-anchor="start" x="60.6569" y="210.422" font-family="Times,serif" font-size="14.00" fill="darkolivegreen">Used</text>
<text text-anchor="start" x="-8.34311" y="224.422" font-family="Times,serif" font-weight="bold" font-size="14.00" fill="#6959cd"> &#160;&#160;&#160;&#160;&#160;&#160;&#160;gpio2</text>
<text text-anchor="start" x="53.6569" y="224.422" font-family="Times,serif" font-size="14.00"> </text>
<text text-anchor="start" x="57.6569" y="224.422" font-family="Times,serif" font-weight="bold" font-size="14.00" fill="#008b8b">:|=</text>
<text text-anchor="start" x="73.6569" y="224.422" font-family="Times,serif" font-size="14.00"> </text>
<text text-anchor="start" x="77.6569" y="224.422" font-family="Times,serif" font-size="14.00" fill="#696969">Pin2</text>
<text text-anchor="start" x="-8.34311" y="238.422" font-family="Times,serif" font-weight="bold" font-size="14.00" fill="darkorchid"> &#160;&#160;&#160;gpio2pwm</text>
<text text-anchor="start" x="67.6569" y="238.422" font-family="Times,serif" font-size="14.00"> </text>
<text text-anchor="start" x="71.6569" y="238.422" font-family="Times,serif" font-size="14.00" fill="#cd0000">Unused</text>
<text text-anchor="start" x="-8.34311" y="252.422" font-family="Times,serif" font-weight="bold" font-size="14.00" fill="darkorchid"> &#160;&#160;&#160;gpio3dig</text>
<text text-anchor="start" x="56.6569" y="252.422" font-family="Times,serif" font-size="14.00"> </text>
<text text-anchor="start" x="60.6569" y="252.422" font-family="Times,serif" font-size="14.00" fill="#cd0000">Unused</text>
<text text-anchor="start" x="-8.34311" y="266.422" font-family="Times,serif" font-weight="bold" font-size="14.00" fill="darkorchid"> &#160;&#160;&#160;gpio3pwm</text>
<text text-anchor="start" x="67.6569" y="266.422" font-family="Times,serif" font-size="14.00"> </text>
<text text-anchor="start" x="71.6569" y="266.422" font-family="Times,serif" font-size="14.00" fill="#cd0000">Unused</text>
<text text-anchor="start" x="-8.34311" y="280.422" font-family="Times,serif" font-weight="bold" font-size="14.00" fill="darkorchid"> &#160;&#160;&#160;i2c</text>
<text text-anchor="start" x="23.6569" y="280.422" font-family="Times,serif" font-size="14.00"> </text>
<text text-anchor="start" x="27.6569" y="280.422" font-family="Times,serif" font-size="14.00" fill="#cd0000">Unused</text>
<polygon fill="none" stroke="black" points="-14.8431,289.722 -14.8431,4.72247 200.157,4.72247 200.157,289.722 -14.8431,289.722"/>
</g>
<!-- trinket3v3[1][#1201#]&#45;&#45;digitalBidirSinkLink[4][#260#] -->
<g id="edge5" class="edge"><title>trinket3v3[1][#1201#]&#45;&#45;digitalBidirSinkLink[4][#260#]</title>
<path fill="none" stroke="black" d="M-22.8814,228.686C-50.7971,248.369 -74.407,265.015 -80.4952,269.308"/>
<polygon fill="none" stroke="black" points="-63.8814,226.186 -63.8814,205.186 -25.8814,205.186 -25.8814,226.186 -63.8814,226.186"/>
<text text-anchor="start" x="-60.8814" y="218.386" font-family="Times,serif" font-weight="bold" font-size="14.00">gpio2</text>
<polygon fill="none" stroke="black" points="-66.8814,228.686 -66.8814,201.686 -22.8814,201.686 -22.8814,228.686 -66.8814,228.686"/>
</g>
<!-- trinket3v3[1][#1201#]&#45;&#45;digitalBidirSourceLink[6][#332#] -->
<g id="edge7" class="edge"><title>trinket3v3[1][#1201#]&#45;&#45;digitalBidirSourceLink[6][#332#]</title>
<path fill="none" stroke="black" d="M208.25,103.198C248.091,88.0239 284.945,73.988 293.535,70.7161"/>
<polygon fill="none" stroke="black" points="211.25,100.698 211.25,79.698 249.25,79.698 249.25,100.698 211.25,100.698"/>
<text text-anchor="start" x="214.25" y="92.898" font-family="Times,serif" font-weight="bold" font-size="14.00">gpio1</text>
<polygon fill="none" stroke="black" points="208.25,103.198 208.25,76.198 252.25,76.198 252.25,103.198 208.25,103.198"/>
</g>
<!-- trinket3v3[1][#1201#]&#45;&#45;powerLink[1][#85#] -->
<g id="edge10" class="edge"><title>trinket3v3[1][#1201#]&#45;&#45;powerLink[1][#85#]</title>
<path fill="none" stroke="black" d="M208.539,9.60267C212.4,5.01797 215.249,1.63392 216.752,-0.150859"/>
<polygon fill="none" stroke="black" points="211.539,34.1027 211.539,13.1027 261.539,13.1027 261.539,34.1027 211.539,34.1027"/>
<text text-anchor="start" x="214.539" y="26.3027" font-family="Times,serif" font-weight="bold" font-size="14.00">3v3Out</text>
<polygon fill="none" stroke="black" points="208.539,36.6027 208.539,9.60267 264.539,9.60267 264.539,36.6027 208.539,36.6027"/>
</g>
<!-- trinket3v3[1][#1201#]&#45;&#45;usbLink[1][#172#] -->
<g id="edge11" class="edge"><title>trinket3v3[1][#1201#]&#45;&#45;usbLink[1][#172#]</title>
<path fill="none" stroke="black" d="M-22.997,24.6397C-35.7252,11.149 -45.427,0.865929 -49.0625,-2.98735"/>
<polygon fill="none" stroke="black" points="-90.497,22.1397 -90.497,1.13973 -25.497,1.13973 -25.497,22.1397 -90.497,22.1397"/>
<text text-anchor="start" x="-87.497" y="14.3397" font-family="Times,serif" font-weight="bold" font-size="14.00">usbDevice</text>
<polygon fill="none" stroke="black" points="-93.997,24.6397 -93.997,-2.36027 -22.997,-2.36027 -22.997,24.6397 -93.997,24.6397"/>
</g>
</g>
</svg>
