<?xml version="1.0" encoding="UTF-8" standalone="no"?>
<!DOCTYPE svg PUBLIC "-//W3C//DTD SVG 1.1//EN"
 "http://www.w3.org/Graphics/SVG/1.1/DTD/svg11.dtd">
<!-- Generated by graphviz version 2.38.0 (20140413.2041)
 -->
<!-- Title: %3 Pages: 1 -->
<svg width="1679pt" height="2166pt"
 viewBox="0.00 0.00 1679.29 2165.62" xmlns="http://www.w3.org/2000/svg" xmlns:xlink="http://www.w3.org/1999/xlink">
<g id="graph0" class="graph" transform="scale(1 1) rotate(0) translate(888.037 1064.84)">
<title>%3</title>
<polygon fill="white" stroke="none" points="-888.037,1100.79 -888.037,-1064.84 791.248,-1064.84 791.248,1100.79 -888.037,1100.79"/>
<!-- Seed[#1263#] -->
<g id="node1" class="node"><title>Seed[#1263#]</title>
<polygon fill="none" stroke="black" points="-704.966,393.786 -704.966,372.786 -535.966,372.786 -535.966,393.786 -704.966,393.786"/>
<text text-anchor="start" x="-658.966" y="385.986" font-family="Times,serif" font-weight="bold" font-size="14.00">Seed[#1263#]</text>
<polygon fill="none" stroke="black" points="-704.966,416.786 -704.966,395.786 -535.966,395.786 -535.966,416.786 -704.966,416.786"/>
<text text-anchor="start" x="-701.966" y="408.986" font-family="Times,serif" font-weight="bold" font-size="14.00">Signature: </text>
<text text-anchor="start" x="-636.966" y="408.986" font-family="Times,serif" font-size="14.00">controlLogic</text>
<polygon fill="none" stroke="black" points="-704.966,439.786 -704.966,418.786 -535.966,418.786 -535.966,439.786 -704.966,439.786"/>
<text text-anchor="start" x="-701.966" y="431.986" font-family="Times,serif" font-weight="bold" font-size="14.00">Ident: </text>
<text text-anchor="start" x="-661.966" y="431.986" font-family="Times,serif" font-size="14.00">Seed[#1263#]</text>
<polygon fill="none" stroke="black" points="-704.966,475.786 -704.966,441.786 -535.966,441.786 -535.966,475.786 -704.966,475.786"/>
<text text-anchor="start" x="-701.966" y="454.986" font-family="Times,serif" font-weight="bold" font-size="14.00">Type: </text>
<text text-anchor="start" x="-663.966" y="454.986" font-family="Times,serif" font-size="14.00" fill="#000080">Record</text>
<text text-anchor="start" x="-623.966" y="454.986" font-family="Times,serif" font-size="14.00"> </text>
<text text-anchor="start" x="-701.966" y="468.986" font-family="Times,serif" font-weight="bold" font-size="14.00" fill="darkgreen"> &#160;&#160;&#160;controlUid</text>
<text text-anchor="start" x="-623.966" y="468.986" font-family="Times,serif" font-size="14.00"> </text>
<text text-anchor="start" x="-619.966" y="468.986" font-family="Times,serif" font-weight="bold" font-size="14.00" fill="#008b8b">&lt;:=</text>
<text text-anchor="start" x="-597.966" y="468.986" font-family="Times,serif" font-size="14.00"> </text>
<text text-anchor="start" x="-593.966" y="468.986" font-family="Times,serif" font-size="14.00" fill="#000080">UID</text>
<text text-anchor="start" x="-568.966" y="468.986" font-family="Times,serif" font-size="14.00"> </text>
<text text-anchor="start" x="-564.966" y="468.986" font-family="Times,serif" font-size="14.00" fill="#ee7600">918</text>
<polygon fill="none" stroke="black" points="-704.966,498.786 -704.966,477.786 -535.966,477.786 -535.966,498.786 -704.966,498.786"/>
<text text-anchor="start" x="-701.966" y="490.986" font-family="Times,serif" font-weight="bold" font-size="14.00">Resource Constraints: </text>
<text text-anchor="start" x="-568.966" y="490.986" font-family="Times,serif" font-size="14.00" fill="#cd0000">None</text>
<polygon fill="none" stroke="black" points="-708.466,501.786 -708.466,369.786 -533.466,369.786 -533.466,501.786 -708.466,501.786"/>
</g>
<!-- apiLink[10][#64#] -->
<g id="node7" class="node"><title>apiLink[10][#64#]</title>
<ellipse fill="black" stroke="black" cx="-882.237" cy="-26.6581" rx="1.8" ry="1.8"/>
</g>
<!-- Seed[#1263#]&#45;&#45;apiLink[10][#64#] -->
<g id="edge1" class="edge"><title>Seed[#1263#]&#45;&#45;apiLink[10][#64#]</title>
<path fill="none" stroke="black" d="M-660.648,365.551C-730.311,242.248 -868.481,-2.30995 -881.281,-24.9663"/>
<polygon fill="none" stroke="black" points="-706.148,363.051 -706.148,342.051 -663.148,342.051 -663.148,363.051 -706.148,363.051"/>
<text text-anchor="start" x="-703.148" y="355.251" font-family="Times,serif" font-weight="bold" font-size="14.00">sensor</text>
<polygon fill="none" stroke="black" points="-709.648,365.551 -709.648,338.551 -660.648,338.551 -660.648,365.551 -709.648,365.551"/>
</g>
<!-- apiLink[1][#1#] -->
<g id="node8" class="node"><title>apiLink[1][#1#]</title>
<ellipse fill="black" stroke="black" cx="-453.969" cy="942.745" rx="1.8" ry="1.8"/>
</g>
<!-- Seed[#1263#]&#45;&#45;apiLink[1][#1#] -->
<g id="edge3" class="edge"><title>Seed[#1263#]&#45;&#45;apiLink[1][#1#]</title>
<path fill="none" stroke="black" d="M-597.834,506.01C-554.134,638.672 -463.043,915.198 -454.6,940.831"/>
<polygon fill="none" stroke="black" points="-649.334,530.51 -649.334,509.51 -600.334,509.51 -600.334,530.51 -649.334,530.51"/>
<text text-anchor="start" x="-646.334" y="522.71" font-family="Times,serif" font-weight="bold" font-size="14.00">storage</text>
<polygon fill="none" stroke="black" points="-652.834,533.01 -652.834,506.01 -597.834,506.01 -597.834,533.01 -652.834,533.01"/>
</g>
<!-- usbLink[1][#172#] -->
<g id="node14" class="node"><title>usbLink[1][#172#]</title>
<ellipse fill="black" stroke="black" cx="-176.573" cy="151.829" rx="1.8" ry="1.8"/>
</g>
<!-- Seed[#1263#]&#45;&#45;usbLink[1][#172#] -->
<g id="edge19" class="edge"><title>Seed[#1263#]&#45;&#45;usbLink[1][#172#]</title>
<path fill="none" stroke="black" d="M-525.36,374.696C-401.384,295.478 -198.506,165.844 -178.221,152.882"/>
<polygon fill="none" stroke="black" points="-521.86,372.196 -521.86,351.196 -466.86,351.196 -466.86,372.196 -521.86,372.196"/>
<text text-anchor="start" x="-518.86" y="364.396" font-family="Times,serif" font-weight="bold" font-size="14.00">usbHost</text>
<polygon fill="none" stroke="black" points="-525.36,374.696 -525.36,347.696 -464.36,347.696 -464.36,374.696 -525.36,374.696"/>
</g>
<!-- apm3v3[1][#918#] -->
<g id="node2" class="node"><title>apm3v3[1][#918#]</title>
<polygon fill="none" stroke="black" points="148.908,-536.642 148.908,-557.642 364.908,-557.642 364.908,-536.642 148.908,-536.642"/>
<text text-anchor="start" x="203.908" y="-544.442" font-family="Times,serif" font-weight="bold" font-size="14.00">apm3v3[1][#918#]</text>
<polygon fill="none" stroke="black" points="148.908,-513.642 148.908,-534.642 364.908,-534.642 364.908,-513.642 148.908,-513.642"/>
<text text-anchor="start" x="151.908" y="-521.442" font-family="Times,serif" font-weight="bold" font-size="14.00">Signature: </text>
<text text-anchor="start" x="216.908" y="-521.442" font-family="Times,serif" font-size="14.00">Arduino Pro Micro 3v3</text>
<polygon fill="none" stroke="black" points="148.908,-490.642 148.908,-511.642 364.908,-511.642 364.908,-490.642 148.908,-490.642"/>
<text text-anchor="start" x="151.908" y="-498.442" font-family="Times,serif" font-weight="bold" font-size="14.00">Ident: </text>
<text text-anchor="start" x="191.908" y="-498.442" font-family="Times,serif" font-size="14.00">apm3v3[1][#918#]</text>
<polygon fill="none" stroke="black" points="148.908,-426.642 148.908,-488.642 364.908,-488.642 364.908,-426.642 148.908,-426.642"/>
<text text-anchor="start" x="151.908" y="-475.442" font-family="Times,serif" font-weight="bold" font-size="14.00">Type: </text>
<text text-anchor="start" x="189.908" y="-475.442" font-family="Times,serif" font-size="14.00" fill="#000080">Record</text>
<text text-anchor="start" x="229.908" y="-475.442" font-family="Times,serif" font-size="14.00"> </text>
<text text-anchor="start" x="151.908" y="-461.442" font-family="Times,serif" font-weight="bold" font-size="14.00" fill="darkgreen"> &#160;&#160;&#160;MHz</text>
<text text-anchor="start" x="197.908" y="-461.442" font-family="Times,serif" font-size="14.00"> </text>
<text text-anchor="start" x="201.908" y="-461.442" font-family="Times,serif" font-weight="bold" font-size="14.00" fill="#008b8b">&lt;:=</text>
<text text-anchor="start" x="223.908" y="-461.442" font-family="Times,serif" font-size="14.00"> </text>
<text text-anchor="start" x="227.908" y="-461.442" font-family="Times,serif" font-size="14.00" fill="#000080">Float</text>
<text text-anchor="start" x="255.908" y="-461.442" font-family="Times,serif" font-size="14.00"> </text>
<text text-anchor="start" x="259.908" y="-461.442" font-family="Times,serif" font-size="14.00" fill="maroon">8.0</text>
<text text-anchor="start" x="151.908" y="-447.442" font-family="Times,serif" font-weight="bold" font-size="14.00" fill="darkgreen"> &#160;&#160;&#160;intCurrentMax</text>
<text text-anchor="start" x="257.908" y="-447.442" font-family="Times,serif" font-size="14.00"> </text>
<text text-anchor="start" x="261.908" y="-447.442" font-family="Times,serif" font-weight="bold" font-size="14.00" fill="#008b8b">&lt;:=</text>
<text text-anchor="start" x="283.908" y="-447.442" font-family="Times,serif" font-size="14.00"> </text>
<text text-anchor="start" x="287.908" y="-447.442" font-family="Times,serif" font-size="14.00" fill="#000080">Float</text>
<text text-anchor="start" x="315.908" y="-447.442" font-family="Times,serif" font-size="14.00"> </text>
<text text-anchor="start" x="319.908" y="-447.442" font-family="Times,serif" font-size="14.00" fill="maroon">2.21e&#45;3</text>
<text text-anchor="start" x="151.908" y="-433.442" font-family="Times,serif" font-weight="bold" font-size="14.00" fill="darkgreen"> &#160;&#160;&#160;intCurrentMin</text>
<text text-anchor="start" x="254.908" y="-433.442" font-family="Times,serif" font-size="14.00"> </text>
<text text-anchor="start" x="258.908" y="-433.442" font-family="Times,serif" font-weight="bold" font-size="14.00" fill="#008b8b">&lt;:=</text>
<text text-anchor="start" x="280.908" y="-433.442" font-family="Times,serif" font-size="14.00"> </text>
<text text-anchor="start" x="284.908" y="-433.442" font-family="Times,serif" font-size="14.00" fill="#000080">Float</text>
<text text-anchor="start" x="312.908" y="-433.442" font-family="Times,serif" font-size="14.00"> </text>
<text text-anchor="start" x="316.908" y="-433.442" font-family="Times,serif" font-size="14.00" fill="maroon">1.0e&#45;6</text>
<polygon fill="none" stroke="black" points="148.908,1.35848 148.908,-424.642 364.908,-424.642 364.908,1.35848 148.908,1.35848"/>
<text text-anchor="start" x="151.908" y="-411.442" font-family="Times,serif" font-weight="bold" font-size="14.00">Resource Constraints: </text>
<text text-anchor="start" x="151.908" y="-397.442" font-family="Times,serif" font-weight="bold" font-size="14.00" fill="darkorchid"> &#160;&#160;&#160;analog0</text>
<text text-anchor="start" x="212.908" y="-397.442" font-family="Times,serif" font-size="14.00"> </text>
<text text-anchor="start" x="216.908" y="-397.442" font-family="Times,serif" font-size="14.00" fill="#cd0000">Unused</text>
<text text-anchor="start" x="151.908" y="-383.442" font-family="Times,serif" font-weight="bold" font-size="14.00" fill="darkorchid"> &#160;&#160;&#160;analog1</text>
<text text-anchor="start" x="212.908" y="-383.442" font-family="Times,serif" font-size="14.00"> </text>
<text text-anchor="start" x="216.908" y="-383.442" font-family="Times,serif" font-size="14.00" fill="#cd0000">Unused</text>
<text text-anchor="start" x="151.908" y="-369.442" font-family="Times,serif" font-weight="bold" font-size="14.00" fill="darkorchid"> &#160;&#160;&#160;analog2</text>
<text text-anchor="start" x="212.908" y="-369.442" font-family="Times,serif" font-size="14.00"> </text>
<text text-anchor="start" x="216.908" y="-369.442" font-family="Times,serif" font-size="14.00" fill="#cd0000">Unused</text>
<text text-anchor="start" x="151.908" y="-355.442" font-family="Times,serif" font-weight="bold" font-size="14.00" fill="darkorchid"> &#160;&#160;&#160;analog3</text>
<text text-anchor="start" x="212.908" y="-355.442" font-family="Times,serif" font-size="14.00"> </text>
<text text-anchor="start" x="216.908" y="-355.442" font-family="Times,serif" font-size="14.00" fill="#cd0000">Unused</text>
<text text-anchor="start" x="151.908" y="-341.442" font-family="Times,serif" font-weight="bold" font-size="14.00" fill="darkorchid"> &#160;&#160;&#160;gpio1dig</text>
<text text-anchor="start" x="216.908" y="-341.442" font-family="Times,serif" font-size="14.00"> </text>
<text text-anchor="start" x="220.908" y="-341.442" font-family="Times,serif" font-size="14.00" fill="#cd0000">Unused</text>
<text text-anchor="start" x="151.908" y="-327.442" font-family="Times,serif" font-weight="bold" font-size="14.00" fill="darkorchid"> &#160;&#160;&#160;gpio1pwm</text>
<text text-anchor="start" x="227.908" y="-327.442" font-family="Times,serif" font-size="14.00"> </text>
<text text-anchor="start" x="231.908" y="-327.442" font-family="Times,serif" font-size="14.00" fill="#cd0000">Unused</text>
<text text-anchor="start" x="151.908" y="-313.442" font-family="Times,serif" font-weight="bold" font-size="14.00" fill="darkorchid"> &#160;&#160;&#160;gpio2dig</text>
<text text-anchor="start" x="216.908" y="-313.442" font-family="Times,serif" font-size="14.00"> </text>
<text text-anchor="start" x="220.908" y="-313.442" font-family="Times,serif" font-size="14.00" fill="#cd0000">Unused</text>
<text text-anchor="start" x="151.908" y="-299.442" font-family="Times,serif" font-weight="bold" font-size="14.00" fill="darkorchid"> &#160;&#160;&#160;gpio2pwm</text>
<text text-anchor="start" x="227.908" y="-299.442" font-family="Times,serif" font-size="14.00"> </text>
<text text-anchor="start" x="231.908" y="-299.442" font-family="Times,serif" font-size="14.00" fill="#cd0000">Unused</text>
<text text-anchor="start" x="151.908" y="-285.442" font-family="Times,serif" font-weight="bold" font-size="14.00" fill="darkorchid"> &#160;&#160;&#160;gpio3dig</text>
<text text-anchor="start" x="216.908" y="-285.442" font-family="Times,serif" font-size="14.00"> </text>
<text text-anchor="start" x="220.908" y="-285.442" font-family="Times,serif" font-size="14.00" fill="#cd0000">Unused</text>
<text text-anchor="start" x="151.908" y="-271.442" font-family="Times,serif" font-weight="bold" font-size="14.00" fill="darkorchid"> &#160;&#160;&#160;gpio3pwm</text>
<text text-anchor="start" x="227.908" y="-271.442" font-family="Times,serif" font-size="14.00"> </text>
<text text-anchor="start" x="231.908" y="-271.442" font-family="Times,serif" font-size="14.00" fill="#cd0000">Unused</text>
<text text-anchor="start" x="151.908" y="-257.442" font-family="Times,serif" font-weight="bold" font-size="14.00" fill="darkorchid"> &#160;&#160;&#160;gpio4dig</text>
<text text-anchor="start" x="216.908" y="-257.442" font-family="Times,serif" font-size="14.00"> </text>
<text text-anchor="start" x="220.908" y="-257.442" font-family="Times,serif" font-size="14.00" fill="#cd0000">Unused</text>
<text text-anchor="start" x="151.908" y="-243.442" font-family="Times,serif" font-weight="bold" font-size="14.00" fill="darkorchid"> &#160;&#160;&#160;gpio4pwm</text>
<text text-anchor="start" x="227.908" y="-243.442" font-family="Times,serif" font-size="14.00"> </text>
<text text-anchor="start" x="231.908" y="-243.442" font-family="Times,serif" font-size="14.00" fill="#cd0000">Unused</text>
<text text-anchor="start" x="151.908" y="-229.442" font-family="Times,serif" font-weight="bold" font-size="14.00" fill="darkorchid"> &#160;&#160;&#160;gpio5dig</text>
<text text-anchor="start" x="216.908" y="-229.442" font-family="Times,serif" font-size="14.00"> </text>
<text text-anchor="start" x="220.908" y="-229.442" font-family="Times,serif" font-size="14.00" fill="#cd0000">Unused</text>
<text text-anchor="start" x="151.908" y="-215.442" font-family="Times,serif" font-weight="bold" font-size="14.00" fill="darkorchid"> &#160;&#160;&#160;gpio5pwm</text>
<text text-anchor="start" x="227.908" y="-215.442" font-family="Times,serif" font-size="14.00"> </text>
<text text-anchor="start" x="231.908" y="-215.442" font-family="Times,serif" font-size="14.00" fill="#cd0000">Unused</text>
<text text-anchor="start" x="151.908" y="-201.442" font-family="Times,serif" font-weight="bold" font-size="14.00" fill="darkorchid"> &#160;&#160;&#160;gpio6dig</text>
<text text-anchor="start" x="216.908" y="-201.442" font-family="Times,serif" font-size="14.00"> </text>
<text text-anchor="start" x="220.908" y="-201.442" font-family="Times,serif" font-size="14.00" fill="darkolivegreen">Used</text>
<text text-anchor="start" x="151.908" y="-187.442" font-family="Times,serif" font-weight="bold" font-size="14.00" fill="#6959cd"> &#160;&#160;&#160;&#160;&#160;&#160;&#160;gpio6</text>
<text text-anchor="start" x="213.908" y="-187.442" font-family="Times,serif" font-size="14.00"> </text>
<text text-anchor="start" x="217.908" y="-187.442" font-family="Times,serif" font-weight="bold" font-size="14.00" fill="#008b8b">:|=</text>
<text text-anchor="start" x="233.908" y="-187.442" font-family="Times,serif" font-size="14.00"> </text>
<text text-anchor="start" x="237.908" y="-187.442" font-family="Times,serif" font-size="14.00" fill="#696969">A0</text>
<text text-anchor="start" x="151.908" y="-173.442" font-family="Times,serif" font-weight="bold" font-size="14.00" fill="darkorchid"> &#160;&#160;&#160;gpio6pwm</text>
<text text-anchor="start" x="227.908" y="-173.442" font-family="Times,serif" font-size="14.00"> </text>
<text text-anchor="start" x="231.908" y="-173.442" font-family="Times,serif" font-size="14.00" fill="#cd0000">Unused</text>
<text text-anchor="start" x="151.908" y="-159.442" font-family="Times,serif" font-weight="bold" font-size="14.00" fill="darkorchid"> &#160;&#160;&#160;gpio7dig</text>
<text text-anchor="start" x="216.908" y="-159.442" font-family="Times,serif" font-size="14.00"> </text>
<text text-anchor="start" x="220.908" y="-159.442" font-family="Times,serif" font-size="14.00" fill="#cd0000">Unused</text>
<text text-anchor="start" x="151.908" y="-145.442" font-family="Times,serif" font-weight="bold" font-size="14.00" fill="darkorchid"> &#160;&#160;&#160;gpio7pwm</text>
<text text-anchor="start" x="227.908" y="-145.442" font-family="Times,serif" font-size="14.00"> </text>
<text text-anchor="start" x="231.908" y="-145.442" font-family="Times,serif" font-size="14.00" fill="#cd0000">Unused</text>
<text text-anchor="start" x="151.908" y="-131.442" font-family="Times,serif" font-weight="bold" font-size="14.00" fill="darkorchid"> &#160;&#160;&#160;gpio8dig</text>
<text text-anchor="start" x="216.908" y="-131.442" font-family="Times,serif" font-size="14.00"> </text>
<text text-anchor="start" x="220.908" y="-131.442" font-family="Times,serif" font-size="14.00" fill="#cd0000">Unused</text>
<text text-anchor="start" x="151.908" y="-117.442" font-family="Times,serif" font-weight="bold" font-size="14.00" fill="darkorchid"> &#160;&#160;&#160;gpio8pwm</text>
<text text-anchor="start" x="227.908" y="-117.442" font-family="Times,serif" font-size="14.00"> </text>
<text text-anchor="start" x="231.908" y="-117.442" font-family="Times,serif" font-size="14.00" fill="#cd0000">Unused</text>
<text text-anchor="start" x="151.908" y="-103.442" font-family="Times,serif" font-weight="bold" font-size="14.00" fill="darkorchid"> &#160;&#160;&#160;i2c</text>
<text text-anchor="start" x="183.908" y="-103.442" font-family="Times,serif" font-size="14.00"> </text>
<text text-anchor="start" x="187.908" y="-103.442" font-family="Times,serif" font-size="14.00" fill="darkolivegreen">Used</text>
<text text-anchor="start" x="151.908" y="-89.4415" font-family="Times,serif" font-weight="bold" font-size="14.00" fill="#6959cd"> &#160;&#160;&#160;&#160;&#160;&#160;&#160;i2cSCL</text>
<text text-anchor="start" x="224.908" y="-89.4415" font-family="Times,serif" font-size="14.00"> </text>
<text text-anchor="start" x="228.908" y="-89.4415" font-family="Times,serif" font-weight="bold" font-size="14.00" fill="#008b8b">:|=</text>
<text text-anchor="start" x="244.908" y="-89.4415" font-family="Times,serif" font-size="14.00"> </text>
<text text-anchor="start" x="248.908" y="-89.4415" font-family="Times,serif" font-size="14.00" fill="#696969">D3</text>
<text text-anchor="start" x="151.908" y="-75.4415" font-family="Times,serif" font-weight="bold" font-size="14.00" fill="#6959cd"> &#160;&#160;&#160;&#160;&#160;&#160;&#160;i2cSDA</text>
<text text-anchor="start" x="225.908" y="-75.4415" font-family="Times,serif" font-size="14.00"> </text>
<text text-anchor="start" x="229.908" y="-75.4415" font-family="Times,serif" font-weight="bold" font-size="14.00" fill="#008b8b">:|=</text>
<text text-anchor="start" x="245.908" y="-75.4415" font-family="Times,serif" font-size="14.00"> </text>
<text text-anchor="start" x="249.908" y="-75.4415" font-family="Times,serif" font-size="14.00" fill="#696969">D2</text>
<text text-anchor="start" x="151.908" y="-61.4415" font-family="Times,serif" font-weight="bold" font-size="14.00" fill="darkorchid"> &#160;&#160;&#160;spi</text>
<text text-anchor="start" x="183.908" y="-61.4415" font-family="Times,serif" font-size="14.00"> </text>
<text text-anchor="start" x="187.908" y="-61.4415" font-family="Times,serif" font-size="14.00" fill="darkolivegreen">Used</text>
<text text-anchor="start" x="151.908" y="-47.4415" font-family="Times,serif" font-weight="bold" font-size="14.00" fill="#6959cd"> &#160;&#160;&#160;&#160;&#160;&#160;&#160;spiMISO</text>
<text text-anchor="start" x="236.908" y="-47.4415" font-family="Times,serif" font-size="14.00"> </text>
<text text-anchor="start" x="240.908" y="-47.4415" font-family="Times,serif" font-weight="bold" font-size="14.00" fill="#008b8b">:|=</text>
<text text-anchor="start" x="256.908" y="-47.4415" font-family="Times,serif" font-size="14.00"> </text>
<text text-anchor="start" x="260.908" y="-47.4415" font-family="Times,serif" font-size="14.00" fill="#696969">D14</text>
<text text-anchor="start" x="151.908" y="-33.4415" font-family="Times,serif" font-weight="bold" font-size="14.00" fill="#6959cd"> &#160;&#160;&#160;&#160;&#160;&#160;&#160;spiMOSI</text>
<text text-anchor="start" x="236.908" y="-33.4415" font-family="Times,serif" font-size="14.00"> </text>
<text text-anchor="start" x="240.908" y="-33.4415" font-family="Times,serif" font-weight="bold" font-size="14.00" fill="#008b8b">:|=</text>
<text text-anchor="start" x="256.908" y="-33.4415" font-family="Times,serif" font-size="14.00"> </text>
<text text-anchor="start" x="260.908" y="-33.4415" font-family="Times,serif" font-size="14.00" fill="#696969">D16</text>
<text text-anchor="start" x="151.908" y="-19.4415" font-family="Times,serif" font-weight="bold" font-size="14.00" fill="#6959cd"> &#160;&#160;&#160;&#160;&#160;&#160;&#160;spiSCK</text>
<text text-anchor="start" x="227.908" y="-19.4415" font-family="Times,serif" font-size="14.00"> </text>
<text text-anchor="start" x="231.908" y="-19.4415" font-family="Times,serif" font-weight="bold" font-size="14.00" fill="#008b8b">:|=</text>
<text text-anchor="start" x="247.908" y="-19.4415" font-family="Times,serif" font-size="14.00"> </text>
<text text-anchor="start" x="251.908" y="-19.4415" font-family="Times,serif" font-size="14.00" fill="#696969">D15</text>
<text text-anchor="start" x="151.908" y="-5.44152" font-family="Times,serif" font-weight="bold" font-size="14.00" fill="darkorchid"> &#160;&#160;&#160;uart</text>
<text text-anchor="start" x="191.908" y="-5.44152" font-family="Times,serif" font-size="14.00"> </text>
<text text-anchor="start" x="195.908" y="-5.44152" font-family="Times,serif" font-size="14.00" fill="#cd0000">Unused</text>
<polygon fill="none" stroke="black" points="145.908,3.85848 145.908,-561.142 367.908,-561.142 367.908,3.85848 145.908,3.85848"/>
</g>
<!-- digitalBidirSinkLink[2][#242#] -->
<g id="node10" class="node"><title>digitalBidirSinkLink[2][#242#]</title>
<ellipse fill="black" stroke="black" cx="785.448" cy="-26.5035" rx="1.8" ry="1.8"/>
</g>
<!-- apm3v3[1][#918#]&#45;&#45;digitalBidirSinkLink[2][#242#] -->
<g id="edge7" class="edge"><title>apm3v3[1][#918#]&#45;&#45;digitalBidirSinkLink[2][#242#]</title>
<path fill="none" stroke="black" d="M376.182,-221.742C524.762,-150.863 761.908,-37.7332 783.814,-27.2831"/>
<polygon fill="none" stroke="black" points="379.182,-224.242 379.182,-245.242 417.182,-245.242 417.182,-224.242 379.182,-224.242"/>
<text text-anchor="start" x="382.182" y="-232.042" font-family="Times,serif" font-weight="bold" font-size="14.00">gpio6</text>
<polygon fill="none" stroke="black" points="376.182,-221.742 376.182,-248.742 420.182,-248.742 420.182,-221.742 376.182,-221.742"/>
</g>
<!-- i2cLink[1][#397#] -->
<g id="node11" class="node"><title>i2cLink[1][#397#]</title>
<ellipse fill="black" stroke="black" cx="-166.969" cy="-735.357" rx="1.8" ry="1.8"/>
</g>
<!-- apm3v3[1][#918#]&#45;&#45;i2cLink[1][#397#] -->
<g id="edge9" class="edge"><title>apm3v3[1][#918#]&#45;&#45;i2cLink[1][#397#]</title>
<path fill="none" stroke="black" d="M137.707,-407.078C19.1906,-534.775 -147.519,-714.4 -165.399,-733.665"/>
<polygon fill="none" stroke="black" points="112.207,-409.578 112.207,-430.578 135.207,-430.578 135.207,-409.578 112.207,-409.578"/>
<text text-anchor="start" x="115.207" y="-417.378" font-family="Times,serif" font-weight="bold" font-size="14.00">i2c</text>
<polygon fill="none" stroke="black" points="108.707,-407.078 108.707,-434.078 137.707,-434.078 137.707,-407.078 108.707,-407.078"/>
</g>
<!-- powerLink[3][#143#] -->
<g id="node12" class="node"><title>powerLink[3][#143#]</title>
<ellipse fill="black" stroke="black" cx="-0.310299" cy="-425.338" rx="1.8" ry="1.8"/>
</g>
<!-- apm3v3[1][#918#]&#45;&#45;powerLink[3][#143#] -->
<g id="edge15" class="edge"><title>apm3v3[1][#918#]&#45;&#45;powerLink[3][#143#]</title>
<path fill="none" stroke="black" d="M137.711,-346.622C76.7352,-381.397 12.9227,-417.791 1.49372,-424.309"/>
<polygon fill="none" stroke="black" points="84.711,-349.122 84.711,-370.122 134.711,-370.122 134.711,-349.122 84.711,-349.122"/>
<text text-anchor="start" x="87.711" y="-356.922" font-family="Times,serif" font-weight="bold" font-size="14.00">3v3Out</text>
<polygon fill="none" stroke="black" points="81.711,-346.622 81.711,-373.622 137.711,-373.622 137.711,-346.622 81.711,-346.622"/>
</g>
<!-- spiLink[1][#385#] -->
<g id="node13" class="node"><title>spiLink[1][#385#]</title>
<ellipse fill="black" stroke="black" cx="714.778" cy="-349.896" rx="1.8" ry="1.8"/>
</g>
<!-- apm3v3[1][#918#]&#45;&#45;spiLink[1][#385#] -->
<g id="edge16" class="edge"><title>apm3v3[1][#918#]&#45;&#45;spiLink[1][#385#]</title>
<path fill="none" stroke="black" d="M376.013,-297.177C503.198,-316.969 689.654,-345.986 712.464,-349.536"/>
<polygon fill="none" stroke="black" points="379.513,-299.677 379.513,-320.677 402.513,-320.677 402.513,-299.677 379.513,-299.677"/>
<text text-anchor="start" x="382.513" y="-307.477" font-family="Times,serif" font-weight="bold" font-size="14.00">spi</text>
<polygon fill="none" stroke="black" points="376.013,-297.177 376.013,-324.177 405.013,-324.177 405.013,-297.177 376.013,-297.177"/>
</g>
<!-- apm3v3[1][#918#]&#45;&#45;usbLink[1][#172#] -->
<g id="edge18" class="edge"><title>apm3v3[1][#918#]&#45;&#45;usbLink[1][#172#]</title>
<path fill="none" stroke="black" d="M137.884,-160.444C16.5745,-39.9768 -156.388,131.785 -174.943,150.211"/>
<polygon fill="none" stroke="black" points="70.3841,-162.944 70.3841,-183.944 135.384,-183.944 135.384,-162.944 70.3841,-162.944"/>
<text text-anchor="start" x="73.3841" y="-170.744" font-family="Times,serif" font-weight="bold" font-size="14.00">usbDevice</text>
<polygon fill="none" stroke="black" points="66.8841,-160.444 66.8841,-187.444 137.884,-187.444 137.884,-160.444 66.8841,-160.444"/>
</g>
<!-- fat32[1][#911#] -->
<g id="node3" class="node"><title>fat32[1][#911#]</title>
<polygon fill="none" stroke="black" points="-7.40064,998.288 -7.40064,977.288 166.599,977.288 166.599,998.288 -7.40064,998.288"/>
<text text-anchor="start" x="35.5994" y="990.488" font-family="Times,serif" font-weight="bold" font-size="14.00">fat32[1][#911#]</text>
<polygon fill="none" stroke="black" points="-7.40064,1021.29 -7.40064,1000.29 166.599,1000.29 166.599,1021.29 -7.40064,1021.29"/>
<text text-anchor="start" x="-4.40064" y="1013.49" font-family="Times,serif" font-weight="bold" font-size="14.00">Signature: </text>
<text text-anchor="start" x="60.5994" y="1013.49" font-family="Times,serif" font-size="14.00">FAT32 Filesystem</text>
<polygon fill="none" stroke="black" points="-7.40064,1044.29 -7.40064,1023.29 166.599,1023.29 166.599,1044.29 -7.40064,1044.29"/>
<text text-anchor="start" x="-4.40064" y="1036.49" font-family="Times,serif" font-weight="bold" font-size="14.00">Ident: </text>
<text text-anchor="start" x="35.5994" y="1036.49" font-family="Times,serif" font-size="14.00">fat32[1][#911#]</text>
<polygon fill="none" stroke="black" points="-7.40064,1067.29 -7.40064,1046.29 166.599,1046.29 166.599,1067.29 -7.40064,1067.29"/>
<text text-anchor="start" x="-4.40064" y="1059.49" font-family="Times,serif" font-weight="bold" font-size="14.00">Type: </text>
<text text-anchor="start" x="33.5994" y="1059.49" font-family="Times,serif" font-size="14.00" fill="#000080">Record</text>
<text text-anchor="start" x="73.5994" y="1059.49" font-family="Times,serif" font-size="14.00"> </text>
<text text-anchor="start" x="77.5994" y="1059.49" font-family="Times,serif" font-weight="bold" font-size="14.00" fill="#008b8b">{</text>
<text text-anchor="start" x="83.5994" y="1059.49" font-family="Times,serif" font-weight="bold" font-size="14.00" fill="#008b8b">}</text>
<polygon fill="none" stroke="black" points="-7.40064,1090.29 -7.40064,1069.29 166.599,1069.29 166.599,1090.29 -7.40064,1090.29"/>
<text text-anchor="start" x="-4.40064" y="1082.49" font-family="Times,serif" font-weight="bold" font-size="14.00">Resource Constraints: </text>
<text text-anchor="start" x="128.599" y="1082.49" font-family="Times,serif" font-size="14.00" fill="#cd0000">None</text>
<polygon fill="none" stroke="black" points="-10.4006,1092.79 -10.4006,973.788 169.599,973.788 169.599,1092.79 -10.4006,1092.79"/>
</g>
<!-- fat32[1][#911#]&#45;&#45;apiLink[1][#1#] -->
<g id="edge4" class="edge"><title>fat32[1][#911#]&#45;&#45;apiLink[1][#1#]</title>
<path fill="none" stroke="black" d="M-18.576,1016.63C-165.457,991.704 -427.878,947.173 -452.157,943.053"/>
<polygon fill="none" stroke="black" points="-57.576,1014.13 -57.576,993.129 -21.576,993.129 -21.576,1014.13 -57.576,1014.13"/>
<text text-anchor="start" x="-54.576" y="1006.33" font-family="Times,serif" font-weight="bold" font-size="14.00">fat32</text>
<polygon fill="none" stroke="black" points="-60.576,1016.63 -60.576,989.629 -18.576,989.629 -18.576,1016.63 -60.576,1016.63"/>
</g>
<!-- apiLink[2][#8#] -->
<g id="node9" class="node"><title>apiLink[2][#8#]</title>
<ellipse fill="black" stroke="black" cx="457.823" cy="644.705" rx="1.8" ry="1.8"/>
</g>
<!-- fat32[1][#911#]&#45;&#45;apiLink[2][#8#] -->
<g id="edge5" class="edge"><title>fat32[1][#911#]&#45;&#45;apiLink[2][#8#]</title>
<path fill="none" stroke="black" d="M141.632,969.557C243.903,864.484 438.462,664.596 456.478,646.087"/>
<polygon fill="none" stroke="black" points="68.6317,967.057 68.6317,946.057 138.632,946.057 138.632,967.057 68.6317,967.057"/>
<text text-anchor="start" x="71.6317" y="959.257" font-family="Times,serif" font-weight="bold" font-size="14.00">nvmemory</text>
<polygon fill="none" stroke="black" points="65.6317,969.557 65.6317,942.557 141.632,942.557 141.632,969.557 65.6317,969.557"/>
</g>
<!-- i2cPower[1][#409#] -->
<g id="node4" class="node"><title>i2cPower[1][#409#]</title>
<polygon fill="none" stroke="black" points="44.5345,-1032.34 44.5345,-1053.34 213.534,-1053.34 213.534,-1032.34 44.5345,-1032.34"/>
<text text-anchor="start" x="73.0345" y="-1040.14" font-family="Times,serif" font-weight="bold" font-size="14.00">i2cPower[1][#409#]</text>
<polygon fill="none" stroke="black" points="44.5345,-1009.34 44.5345,-1030.34 213.534,-1030.34 213.534,-1009.34 44.5345,-1009.34"/>
<text text-anchor="start" x="47.5345" y="-1017.14" font-family="Times,serif" font-weight="bold" font-size="14.00">Signature: </text>
<text text-anchor="start" x="112.534" y="-1017.14" font-family="Times,serif" font-size="14.00">i2cPower</text>
<polygon fill="none" stroke="black" points="44.5345,-986.335 44.5345,-1007.34 213.534,-1007.34 213.534,-986.335 44.5345,-986.335"/>
<text text-anchor="start" x="47.5345" y="-994.135" font-family="Times,serif" font-weight="bold" font-size="14.00">Ident: </text>
<text text-anchor="start" x="87.5345" y="-994.135" font-family="Times,serif" font-size="14.00">i2cPower[1][#409#]</text>
<polygon fill="none" stroke="black" points="44.5345,-963.335 44.5345,-984.335 213.534,-984.335 213.534,-963.335 44.5345,-963.335"/>
<text text-anchor="start" x="47.5345" y="-971.135" font-family="Times,serif" font-weight="bold" font-size="14.00">Type: </text>
<text text-anchor="start" x="85.5345" y="-971.135" font-family="Times,serif" font-size="14.00" fill="#000080">Record</text>
<text text-anchor="start" x="125.534" y="-971.135" font-family="Times,serif" font-size="14.00"> </text>
<text text-anchor="start" x="129.534" y="-971.135" font-family="Times,serif" font-weight="bold" font-size="14.00" fill="#008b8b">{</text>
<text text-anchor="start" x="135.534" y="-971.135" font-family="Times,serif" font-weight="bold" font-size="14.00" fill="#008b8b">}</text>
<polygon fill="none" stroke="black" points="44.5345,-940.335 44.5345,-961.335 213.534,-961.335 213.534,-940.335 44.5345,-940.335"/>
<text text-anchor="start" x="47.5345" y="-948.135" font-family="Times,serif" font-weight="bold" font-size="14.00">Resource Constraints: </text>
<text text-anchor="start" x="180.534" y="-948.135" font-family="Times,serif" font-size="14.00" fill="#cd0000">None</text>
<polygon fill="none" stroke="black" points="41.0345,-937.835 41.0345,-1056.84 216.034,-1056.84 216.034,-937.835 41.0345,-937.835"/>
</g>
<!-- i2cPower[1][#409#]&#45;&#45;i2cLink[1][#397#] -->
<g id="edge10" class="edge"><title>i2cPower[1][#409#]&#45;&#45;i2cLink[1][#397#]</title>
<path fill="none" stroke="black" d="M56.624,-933.583C-25.379,-860.884 -150.144,-750.273 -165.419,-736.731"/>
<polygon fill="none" stroke="black" points="21.624,-909.083 21.624,-930.083 53.624,-930.083 53.624,-909.083 21.624,-909.083"/>
<text text-anchor="start" x="24.624" y="-916.883" font-family="Times,serif" font-weight="bold" font-size="14.00">vout</text>
<polygon fill="none" stroke="black" points="18.624,-906.583 18.624,-933.583 56.624,-933.583 56.624,-906.583 18.624,-906.583"/>
</g>
<!-- i2cPower[1][#409#]&#45;&#45;powerLink[3][#143#] -->
<g id="edge14" class="edge"><title>i2cPower[1][#409#]&#45;&#45;powerLink[3][#143#]</title>
<path fill="none" stroke="black" d="M114.192,-933.661C82.0505,-790.973 6.55618,-455.821 0.127725,-427.282"/>
<polygon fill="none" stroke="black" points="86.6915,-909.161 86.6915,-930.161 111.692,-930.161 111.692,-909.161 86.6915,-909.161"/>
<text text-anchor="start" x="89.6915" y="-916.961" font-family="Times,serif" font-weight="bold" font-size="14.00">vin</text>
<polygon fill="none" stroke="black" points="83.1915,-906.661 83.1915,-933.661 114.192,-933.661 114.192,-906.661 83.1915,-906.661"/>
</g>
<!-- sdcard[1][#608#] -->
<g id="node5" class="node"><title>sdcard[1][#608#]</title>
<polygon fill="none" stroke="black" points="340.095,44.3585 340.095,23.3585 509.095,23.3585 509.095,44.3585 340.095,44.3585"/>
<text text-anchor="start" x="375.595" y="36.5585" font-family="Times,serif" font-weight="bold" font-size="14.00">sdcard[1][#608#]</text>
<polygon fill="none" stroke="black" points="340.095,67.3585 340.095,46.3585 509.095,46.3585 509.095,67.3585 340.095,67.3585"/>
<text text-anchor="start" x="343.095" y="59.5585" font-family="Times,serif" font-weight="bold" font-size="14.00">Signature: </text>
<text text-anchor="start" x="408.095" y="59.5585" font-family="Times,serif" font-size="14.00">SD Card</text>
<polygon fill="none" stroke="black" points="340.095,90.3585 340.095,69.3585 509.095,69.3585 509.095,90.3585 340.095,90.3585"/>
<text text-anchor="start" x="343.095" y="82.5585" font-family="Times,serif" font-weight="bold" font-size="14.00">Ident: </text>
<text text-anchor="start" x="383.095" y="82.5585" font-family="Times,serif" font-size="14.00">sdcard[1][#608#]</text>
<polygon fill="none" stroke="black" points="340.095,113.358 340.095,92.3585 509.095,92.3585 509.095,113.358 340.095,113.358"/>
<text text-anchor="start" x="343.095" y="105.558" font-family="Times,serif" font-weight="bold" font-size="14.00">Type: </text>
<text text-anchor="start" x="381.095" y="105.558" font-family="Times,serif" font-size="14.00" fill="#000080">Record</text>
<text text-anchor="start" x="421.095" y="105.558" font-family="Times,serif" font-size="14.00"> </text>
<text text-anchor="start" x="425.095" y="105.558" font-family="Times,serif" font-weight="bold" font-size="14.00" fill="#008b8b">{</text>
<text text-anchor="start" x="431.095" y="105.558" font-family="Times,serif" font-weight="bold" font-size="14.00" fill="#008b8b">}</text>
<polygon fill="none" stroke="black" points="340.095,136.358 340.095,115.358 509.095,115.358 509.095,136.358 340.095,136.358"/>
<text text-anchor="start" x="343.095" y="128.558" font-family="Times,serif" font-weight="bold" font-size="14.00">Resource Constraints: </text>
<text text-anchor="start" x="476.095" y="128.558" font-family="Times,serif" font-size="14.00" fill="#cd0000">None</text>
<polygon fill="none" stroke="black" points="336.595,138.858 336.595,19.8585 511.595,19.8585 511.595,138.858 336.595,138.858"/>
</g>
<!-- sdcard[1][#608#]&#45;&#45;apiLink[2][#8#] -->
<g id="edge6" class="edge"><title>sdcard[1][#608#]&#45;&#45;apiLink[2][#8#]</title>
<path fill="none" stroke="black" d="M427.898,143.112C436.34,284.612 456.032,614.686 457.708,642.79"/>
<polygon fill="none" stroke="black" points="400.398,167.612 400.398,146.612 425.398,146.612 425.398,167.612 400.398,167.612"/>
<text text-anchor="start" x="403.398" y="159.812" font-family="Times,serif" font-weight="bold" font-size="14.00">api</text>
<polygon fill="none" stroke="black" points="396.898,170.112 396.898,143.112 427.898,143.112 427.898,170.112 396.898,170.112"/>
</g>
<!-- sdcard[1][#608#]&#45;&#45;digitalBidirSinkLink[2][#242#] -->
<g id="edge8" class="edge"><title>sdcard[1][#608#]&#45;&#45;digitalBidirSinkLink[2][#242#]</title>
<path fill="none" stroke="black" d="M519.982,51.2673C620.344,21.8653 765.847,-20.7612 783.643,-25.9747"/>
<polygon fill="none" stroke="black" points="522.982,48.7673 522.982,27.7673 540.982,27.7673 540.982,48.7673 522.982,48.7673"/>
<text text-anchor="start" x="525.982" y="40.9673" font-family="Times,serif" font-weight="bold" font-size="14.00">cs</text>
<polygon fill="none" stroke="black" points="519.982,51.2673 519.982,24.2673 543.982,24.2673 543.982,51.2673 519.982,51.2673"/>
</g>
<!-- sdcard[1][#608#]&#45;&#45;powerLink[3][#143#] -->
<g id="edge13" class="edge"><title>sdcard[1][#608#]&#45;&#45;powerLink[3][#143#]</title>
<path fill="none" stroke="black" d="M328.483,80.1207C265.926,75.5551 186.487,59.4178 134.708,11.0585 -6.71342,-121.022 -1.20726,-397.767 -0.38032,-423.422"/>
<polygon fill="none" stroke="black" points="300.983,77.6207 300.983,56.6207 325.983,56.6207 325.983,77.6207 300.983,77.6207"/>
<text text-anchor="start" x="303.983" y="69.8207" font-family="Times,serif" font-weight="bold" font-size="14.00">vin</text>
<polygon fill="none" stroke="black" points="297.483,80.1207 297.483,53.1207 328.483,53.1207 328.483,80.1207 297.483,80.1207"/>
</g>
<!-- sdcard[1][#608#]&#45;&#45;spiLink[1][#385#] -->
<g id="edge17" class="edge"><title>sdcard[1][#608#]&#45;&#45;spiLink[1][#385#]</title>
<path fill="none" stroke="black" d="M467.299,15.5583C544.479,-98.4134 699.356,-327.122 713.706,-348.313"/>
<polygon fill="none" stroke="black" points="441.799,13.0583 441.799,-7.94169 464.799,-7.94169 464.799,13.0583 441.799,13.0583"/>
<text text-anchor="start" x="444.799" y="5.25831" font-family="Times,serif" font-weight="bold" font-size="14.00">spi</text>
<polygon fill="none" stroke="black" points="438.299,15.5583 438.299,-11.4417 467.299,-11.4417 467.299,15.5583 438.299,15.5583"/>
</g>
<!-- tmp102[1][#498#] -->
<g id="node6" class="node"><title>tmp102[1][#498#]</title>
<polygon fill="none" stroke="black" points="-644.161,-482.984 -644.161,-503.984 -447.161,-503.984 -447.161,-482.984 -644.161,-482.984"/>
<text text-anchor="start" x="-597.161" y="-490.784" font-family="Times,serif" font-weight="bold" font-size="14.00">tmp102[1][#498#]</text>
<polygon fill="none" stroke="black" points="-644.161,-459.984 -644.161,-480.984 -447.161,-480.984 -447.161,-459.984 -644.161,-459.984"/>
<text text-anchor="start" x="-641.161" y="-467.784" font-family="Times,serif" font-weight="bold" font-size="14.00">Signature: </text>
<text text-anchor="start" x="-576.161" y="-467.784" font-family="Times,serif" font-size="14.00">TMP102 Temp Sensor</text>
<polygon fill="none" stroke="black" points="-644.161,-436.984 -644.161,-457.984 -447.161,-457.984 -447.161,-436.984 -644.161,-436.984"/>
<text text-anchor="start" x="-641.161" y="-444.784" font-family="Times,serif" font-weight="bold" font-size="14.00">Ident: </text>
<text text-anchor="start" x="-601.161" y="-444.784" font-family="Times,serif" font-size="14.00">tmp102[1][#498#]</text>
<polygon fill="none" stroke="black" points="-644.161,-413.984 -644.161,-434.984 -447.161,-434.984 -447.161,-413.984 -644.161,-413.984"/>
<text text-anchor="start" x="-641.161" y="-421.784" font-family="Times,serif" font-weight="bold" font-size="14.00">Type: </text>
<text text-anchor="start" x="-603.161" y="-421.784" font-family="Times,serif" font-size="14.00" fill="#000080">Record</text>
<text text-anchor="start" x="-563.161" y="-421.784" font-family="Times,serif" font-size="14.00"> </text>
<text text-anchor="start" x="-559.161" y="-421.784" font-family="Times,serif" font-weight="bold" font-size="14.00" fill="#008b8b">{</text>
<text text-anchor="start" x="-553.161" y="-421.784" font-family="Times,serif" font-weight="bold" font-size="14.00" fill="#008b8b">}</text>
<polygon fill="none" stroke="black" points="-644.161,-390.984 -644.161,-411.984 -447.161,-411.984 -447.161,-390.984 -644.161,-390.984"/>
<text text-anchor="start" x="-641.161" y="-398.784" font-family="Times,serif" font-weight="bold" font-size="14.00">Resource Constraints: </text>
<text text-anchor="start" x="-508.161" y="-398.784" font-family="Times,serif" font-size="14.00" fill="#cd0000">None</text>
<polygon fill="none" stroke="black" points="-647.661,-388.484 -647.661,-507.484 -444.661,-507.484 -444.661,-388.484 -647.661,-388.484"/>
</g>
<!-- tmp102[1][#498#]&#45;&#45;apiLink[10][#64#] -->
<g id="edge2" class="edge"><title>tmp102[1][#498#]&#45;&#45;apiLink[10][#64#]</title>
<path fill="none" stroke="black" d="M-596.839,-384.451C-686.324,-272.267 -864.497,-48.8978 -881.004,-28.2034"/>
<polygon fill="none" stroke="black" points="-624.339,-359.951 -624.339,-380.951 -599.339,-380.951 -599.339,-359.951 -624.339,-359.951"/>
<text text-anchor="start" x="-621.339" y="-367.751" font-family="Times,serif" font-weight="bold" font-size="14.00">api</text>
<polygon fill="none" stroke="black" points="-627.839,-357.451 -627.839,-384.451 -596.839,-384.451 -596.839,-357.451 -627.839,-357.451"/>
</g>
<!-- tmp102[1][#498#]&#45;&#45;i2cLink[1][#397#] -->
<g id="edge11" class="edge"><title>tmp102[1][#498#]&#45;&#45;i2cLink[1][#397#]</title>
<path fill="none" stroke="black" d="M-462.006,-511.762C-356.402,-591.794 -186.806,-720.323 -168.572,-734.142"/>
<polygon fill="none" stroke="black" points="-487.506,-514.262 -487.506,-535.262 -464.506,-535.262 -464.506,-514.262 -487.506,-514.262"/>
<text text-anchor="start" x="-484.506" y="-522.062" font-family="Times,serif" font-weight="bold" font-size="14.00">i2c</text>
<polygon fill="none" stroke="black" points="-491.006,-511.762 -491.006,-538.762 -462.006,-538.762 -462.006,-511.762 -491.006,-511.762"/>
</g>
<!-- tmp102[1][#498#]&#45;&#45;powerLink[3][#143#] -->
<g id="edge12" class="edge"><title>tmp102[1][#498#]&#45;&#45;powerLink[3][#143#]</title>
<path fill="none" stroke="black" d="M-436.357,-443.429C-285.054,-437.151 -28.1051,-426.491 -2.39893,-425.424"/>
<polygon fill="none" stroke="black" points="-432.857,-445.929 -432.857,-466.929 -407.857,-466.929 -407.857,-445.929 -432.857,-445.929"/>
<text text-anchor="start" x="-429.857" y="-453.729" font-family="Times,serif" font-weight="bold" font-size="14.00">vin</text>
<polygon fill="none" stroke="black" points="-436.357,-443.429 -436.357,-470.429 -405.357,-470.429 -405.357,-443.429 -436.357,-443.429"/>
</g>
</g>
</svg>
